<?xml version="1.0" standalone="no"?>
<!DOCTYPE svg PUBLIC "-//W3C//DTD SVG 20010904//EN"
 "http://www.w3.org/TR/2001/REC-SVG-20010904/DTD/svg10.dtd">
<svg version="1.0" xmlns="http://www.w3.org/2000/svg"
 width="1024.000000pt" height="1024.000000pt" viewBox="0 0 1024.000000 1024.000000"
 preserveAspectRatio="xMidYMid meet">

<g transform="translate(0.000000,1024.000000) scale(0.100000,-0.100000)"
fill="#000000" stroke="none">
<path d="M0 5120 l0 -5120 5120 0 5120 0 0 5120 0 5120 -5120 0 -5120 0 0
-5120z m6105 2523 c306 -5 495 -10 460 -15 -68 -8 -1192 -32 -1445 -31 -431 3
-1418 25 -1445 32 -19 6 91 10 295 11 179 2 467 6 640 10 310 8 464 7 1495 -7z
m-3232 -10 c-7 -2 -21 -2 -30 0 -10 3 -4 5 12 5 17 0 24 -2 18 -5z m453 -6 c4
-4 -4 -7 -19 -7 -14 0 -29 5 -32 10 -7 12 39 9 51 -3z m-572 -42 c-24 -24 -61
-68 -84 -97 -23 -29 -80 -93 -128 -143 -48 -49 -105 -110 -125 -135 -31 -37
-35 -40 -23 -14 8 17 22 37 31 44 21 17 135 156 135 164 0 3 -15 3 -32 -1 -46
-8 -118 -52 -119 -71 0 -14 -2 -13 -10 3 -25 51 -178 69 -644 76 -129 2 -140
3 -80 9 39 4 183 11 320 15 138 3 268 11 290 16 56 14 105 38 112 55 4 11 13
8 42 -14 47 -37 84 -52 125 -52 30 0 44 11 121 95 48 52 93 95 100 95 6 0 -8
-20 -31 -45z m668 -430 c60 -143 136 -323 169 -401 32 -77 59 -143 59 -147 0
-4 -48 -6 -106 -5 l-106 3 -24 59 c-28 68 -30 82 -8 46 10 -17 13 -18 9 -5 -4
11 -10 28 -12 38 -3 9 -13 17 -22 17 -14 0 -14 2 -1 10 10 6 -37 9 -140 8
l-155 -2 140 -6 140 -6 -142 -2 c-92 -1 -143 2 -143 8 0 6 14 44 31 85 l32 75
83 0 82 0 -29 76 c-16 42 -28 79 -25 81 2 2 8 -10 14 -26 6 -17 13 -31 16 -31
3 0 -6 30 -21 68 -14 37 -32 86 -40 110 -8 23 -18 42 -22 42 -4 0 -22 -39 -41
-87 -42 -114 -46 -125 -21 -83 11 19 20 32 21 28 0 -9 -130 -332 -137 -338 -3
-3 -3 6 1 20 3 14 -3 7 -13 -15 -23 -48 -26 -70 -5 -35 17 28 14 15 -18 -68
-12 -29 -23 -51 -25 -48 -2 2 3 21 12 41 8 21 13 40 11 42 -2 2 -12 -16 -21
-41 l-18 -46 -93 0 c-52 0 -94 1 -94 3 0 8 193 470 286 685 l49 113 109 -3
109 -3 109 -260z m475 215 c1 -39 0 -41 -7 -15 -5 21 -8 0 -7 -65 0 -73 2 -85
7 -50 4 25 8 -109 8 -297 l2 -343 -89 0 -88 0 -6 93 c-4 73 -3 714 2 725 0 1
40 1 89 0 l87 -3 2 -45z m941 -95 l-5 -144 28 23 c35 30 118 50 166 41 53 -10
108 -40 131 -72 37 -54 42 -90 42 -309 l0 -214 -90 0 -90 0 0 179 c0 99 -5
192 -10 208 -9 26 -9 27 5 9 8 -11 15 -14 15 -7 0 15 -45 61 -60 61 -6 0 -9
-4 -5 -9 3 -6 -9 -6 -30 0 -36 10 -61 3 -84 -25 -8 -10 -12 -72 -12 -215 l0
-201 -88 0 -88 0 -6 68 c-9 87 -9 275 0 540 l6 212 90 0 90 0 -5 -145z m-416
-107 c78 -33 170 -148 136 -170 -7 -4 -22 -6 -33 -3 -12 2 -45 -2 -74 -10
l-53 -14 -25 29 c-15 18 -40 33 -66 38 -27 6 -33 10 -18 11 13 1 22 4 18 7 -9
9 -68 -7 -62 -17 4 -5 -1 -6 -10 -3 -17 7 -45 -12 -45 -30 0 -6 7 -2 15 8 8
11 15 15 15 9 0 -12 -18 -28 -32 -28 -12 0 -22 -15 -10 -15 8 0 9 -7 2 -26
-35 -92 24 -204 107 -204 45 0 92 25 103 55 11 30 28 31 115 9 42 -11 65 -21
65 -31 0 -8 -4 -11 -10 -8 -6 3 -7 -1 -4 -10 11 -29 -57 -115 -116 -145 -21
-10 -49 -16 -70 -14 -23 3 -29 2 -17 -4 12 -5 -9 -8 -55 -8 -50 -1 -67 2 -53
8 14 6 8 7 -21 3 -33 -4 -50 1 -95 28 -51 30 -119 112 -119 141 0 6 12 -10 27
-36 36 -66 39 -55 3 15 -15 31 -30 51 -33 44 -9 -23 -20 86 -14 139 21 203
230 315 429 232z m1301 0 c58 -25 120 -93 141 -155 18 -52 23 -189 6 -163 -6
10 -10 11 -10 3 0 -10 -46 -13 -195 -13 -107 0 -195 -4 -195 -9 0 -16 42 -62
73 -77 43 -23 111 -14 145 19 l27 26 70 -21 c39 -11 74 -24 79 -28 4 -5 -5
-26 -20 -47 -36 -47 -55 -62 -70 -56 -7 2 -15 -1 -20 -8 -4 -8 -3 -10 4 -5 7
4 12 5 12 2 0 -3 -15 -13 -32 -23 -24 -12 -59 -17 -123 -18 -57 -1 -81 2 -65
7 18 5 12 6 -19 4 -32 -3 -41 -2 -30 5 10 8 7 9 -13 5 -34 -8 -100 41 -144
106 -62 92 -66 236 -9 333 75 129 239 176 388 113z m630 17 c21 -3 53 -20 73
-37 l35 -31 22 20 c67 62 170 75 254 32 37 -20 53 -36 75 -78 l28 -53 0 -219
0 -219 -91 0 -90 0 2 207 c2 199 1 207 -19 224 -33 26 -99 23 -128 -6 -13 -13
-24 -30 -24 -37 0 -7 6 -4 12 7 14 26 38 45 57 45 10 0 6 -5 -9 -13 -44 -22
-50 -49 -50 -245 l0 -183 -52 3 c-29 2 -56 8 -60 13 -5 6 -8 5 -8 -2 0 -8 -13
-13 -30 -13 l-30 0 -1 148 c-1 81 0 157 1 169 0 12 -3 38 -9 58 -6 24 -6 33 1
29 6 -4 5 2 -1 15 -13 24 -10 23 -70 26 -38 3 -49 -1 -73 -26 -25 -25 -29 -34
-23 -61 4 -18 8 -106 9 -195 l2 -163 -79 0 c-53 0 -83 4 -92 14 -11 11 -14 70
-15 290 l-1 276 91 0 c83 0 90 -2 90 -20 0 -19 1 -19 36 2 38 23 90 38 114 33
8 -2 32 -6 53 -10z m787 -153 l57 -142 55 142 56 143 97 3 c75 2 96 0 93 -10
-3 -7 -11 -13 -18 -13 -8 0 -33 -49 -62 -120 -26 -66 -48 -122 -47 -125 0 -3
9 11 20 30 28 48 20 26 -41 -118 -29 -67 -55 -120 -60 -117 -4 2 -16 -17 -26
-43 -27 -67 -28 -71 -4 -32 26 44 24 38 -24 -83 l-39 -97 -94 0 c-51 0 -93 4
-93 9 0 12 66 176 81 198 9 16 -5 56 -86 243 -110 255 -122 289 -65 175 45
-89 46 -84 4 18 -15 37 -33 67 -40 67 -7 0 -16 5 -19 10 -5 7 27 10 96 8 l102
-3 57 -143z m321 61 c-12 -20 -14 -14 -5 12 4 9 9 14 11 11 3 -2 0 -13 -6 -23z
m-30 -74 c-11 -24 -20 -41 -20 -37 -1 12 31 89 35 85 3 -2 -4 -24 -15 -48z
m-1211 17 c0 -2 -7 -7 -16 -10 -8 -3 -12 -2 -9 4 6 10 25 14 25 6z m65 -6 c3
-6 -1 -7 -9 -4 -18 7 -21 14 -7 14 6 0 13 -4 16 -10z m-118 -40 c-7 -17 -13
-26 -15 -21 -3 10 15 51 22 51 3 0 -1 -14 -7 -30z m491 -11 c-3 -8 -7 -3 -11
10 -4 17 -3 21 5 13 5 -5 8 -16 6 -23z m-4608 -6 c179 -4 312 -9 295 -10 -16
-2 -126 -7 -243 -12 -165 -6 -216 -11 -223 -22 -8 -12 -10 -12 -19 1 -6 9 -10
10 -10 3 0 -9 -63 -12 -242 -12 -147 -1 -238 2 -229 8 22 14 -169 23 -424 19
-211 -3 -232 -5 -257 -23 -64 -47 -62 -24 -56 -730 4 -381 1 -842 -6 -1140
l-11 -500 -6 670 c-3 369 -3 891 0 1162 6 479 7 492 27 520 12 15 36 37 55 48
32 19 58 20 444 26 226 3 448 5 495 3 47 -2 231 -7 410 -11z m7030 -2 c59 -6
52 -8 -85 -16 -177 -11 -629 -8 -700 4 l-50 9 50 2 c28 1 118 6 200 10 155 7
472 2 585 -9z m-7533 -349 c124 -72 283 -129 409 -147 27 -4 55 -12 62 -17 8
-8 12 -48 12 -139 0 -234 -41 -425 -117 -552 -57 -94 -189 -241 -210 -233 -8
3 -11 2 -8 -3 11 -19 -167 -131 -208 -131 -28 0 -116 51 -217 126 -70 53 -96
80 -147 157 -131 198 -172 330 -179 592 -3 94 -2 175 3 181 4 5 62 20 128 33
125 24 246 69 345 127 30 19 60 33 67 34 7 0 34 -13 60 -28z m1230 -18 c-3 -3
-12 -4 -19 -1 -8 3 -5 6 6 6 11 1 17 -2 13 -5z m146 -1 c-23 -2 -64 -2 -90 0
-26 2 -7 3 42 3 50 0 71 -1 48 -3z m1385 -256 c2 -11 -3 -17 -17 -17 -25 0
-38 19 -20 31 19 12 33 6 37 -14z m918 11 c4 -6 0 -16 -9 -23 -21 -15 -22 -25
-2 -25 8 0 15 -7 15 -15 0 -8 -7 -15 -15 -15 -12 0 -15 -13 -15 -60 0 -53 -2
-60 -20 -60 -18 0 -20 7 -20 60 0 33 -4 60 -10 60 -5 0 -10 7 -10 15 0 8 5 15
10 15 6 0 10 6 10 14 0 33 51 59 66 34z m714 -94 c0 -95 -2 -105 -17 -102 -15
3 -18 16 -20 93 -2 102 0 115 22 115 12 0 15 -17 15 -106z m1228 83 c2 -12 -3
-17 -17 -17 -12 0 -21 6 -21 13 0 31 32 34 38 4z m-4288 -7 c0 -16 -7 -20 -30
-20 l-30 0 0 -79 c0 -70 -2 -79 -17 -77 -15 2 -18 15 -21 79 -3 74 -4 77 -27
77 -18 0 -25 5 -25 20 0 18 7 20 75 20 68 0 75 -2 75 -20z m60 -10 c0 -27 2
-29 28 -24 44 9 62 -16 62 -87 0 -52 -2 -59 -20 -59 -16 0 -19 8 -22 58 -3 49
-6 57 -23 57 -17 0 -20 -8 -23 -57 -3 -50 -6 -58 -22 -58 -19 0 -20 8 -20 100
0 93 1 100 20 100 16 0 20 -7 20 -30z m462 -60 c15 -46 28 -89 28 -95 0 -21
-32 -12 -43 12 -15 34 -74 33 -87 -2 -10 -26 -40 -35 -40 -12 0 11 10 44 55
175 3 8 16 12 32 10 23 -3 29 -12 55 -88z m409 80 c23 -13 25 -47 2 -72 -23
-25 -4 -45 25 -27 27 17 37 7 21 -19 -11 -18 -10 -24 4 -40 21 -24 12 -34 -20
-21 -15 6 -31 5 -43 -1 -27 -14 -51 -12 -72 7 -22 19 -24 56 -4 72 10 9 13 23
9 48 -9 52 30 78 78 53z m260 -9 c19 -15 21 -22 12 -32 -9 -9 -18 -8 -38 5
-15 10 -33 15 -41 12 -24 -9 -16 -35 14 -42 48 -11 72 -32 72 -64 0 -42 -39
-66 -87 -54 -37 9 -64 37 -50 51 4 4 17 2 27 -5 11 -7 31 -12 46 -12 36 0 28
32 -12 45 -43 14 -64 34 -64 61 0 49 77 71 121 35z m1279 -61 l0 -80 46 0 c37
0 45 -3 42 -17 -2 -12 -17 -17 -65 -20 l-63 -4 0 100 c0 94 1 101 20 101 18 0
20 -7 20 -80z m810 60 c0 -17 -7 -20 -45 -20 -41 0 -45 -2 -45 -25 0 -23 4
-25 45 -25 33 0 45 -4 45 -15 0 -11 -12 -15 -45 -15 l-45 0 0 -41 c0 -33 -3
-40 -17 -37 -15 3 -18 17 -21 101 l-3 97 66 0 c58 0 65 -2 65 -20z m60 5 c0
-8 -9 -15 -20 -15 -11 0 -20 7 -20 15 0 8 9 15 20 15 11 0 20 -7 20 -15z m590
-6 c0 -11 -5 -17 -10 -14 -6 3 -19 3 -30 0 -18 -6 -19 -13 -15 -81 3 -61 1
-76 -12 -81 -24 -10 -34 17 -31 90 3 67 1 71 -34 68 -19 -2 -32 14 -23 29 3 6
40 10 81 10 68 0 74 -2 74 -21z m-3203 -8 c3 -11 11 -22 19 -25 19 -7 18 -26
-1 -26 -22 0 -21 -86 2 -94 26 -10 -1 -30 -31 -22 -24 6 -26 11 -26 61 0 30
-4 55 -10 55 -5 0 -10 7 -10 15 0 8 5 15 10 15 6 0 10 9 10 20 0 26 30 26 37
1z m-451 -29 c13 -8 34 -46 34 -61 0 -6 -20 -11 -44 -11 -25 0 -47 -4 -51 -9
-9 -15 28 -31 46 -20 21 13 39 11 39 -5 0 -7 -14 -19 -30 -26 -39 -16 -76 -1
-90 36 -14 36 -13 48 11 78 20 26 61 35 85 18z m384 -5 c0 -5 -11 -18 -25 -29
-20 -16 -25 -28 -25 -64 0 -38 -3 -45 -17 -42 -15 3 -19 16 -21 74 l-3 71 46
0 c25 0 45 -5 45 -10z m685 -1 c12 -8 16 -19 12 -31 -7 -16 -9 -16 -33 0 -24
15 -28 15 -41 2 -11 -10 -13 -24 -9 -42 7 -28 22 -30 69 -10 26 11 22 -20 -5
-39 -32 -22 -55 -20 -83 9 -30 30 -32 64 -4 99 23 29 63 35 94 12z m79 -60 c1
-57 -2 -70 -16 -72 -14 -2 -17 10 -20 68 -3 75 -2 80 21 76 11 -2 14 -20 15
-72z m140 55 c10 -11 16 -30 14 -43 -3 -21 -7 -23 -47 -20 -33 3 -42 1 -39
-10 4 -8 19 -12 47 -11 47 2 52 -9 16 -33 -48 -32 -104 2 -105 64 0 62 75 97
114 53z m154 6 c6 -7 12 -39 13 -72 2 -50 0 -60 -14 -63 -14 -3 -17 4 -17 35
0 52 -10 83 -26 83 -20 0 -28 -20 -29 -70 0 -36 -3 -45 -17 -45 -10 0 -18 3
-18 8 0 4 0 35 0 70 l0 64 49 1 c28 0 54 -4 59 -11z m154 -4 c10 -9 18 -20 18
-25 0 -12 -34 -10 -47 3 -19 19 -43 2 -43 -29 0 -41 20 -56 49 -36 33 23 50 3
22 -25 -45 -45 -111 -12 -111 56 0 20 7 45 17 55 20 22 70 23 95 1z m141 5 c9
-7 19 -25 23 -40 6 -27 5 -28 -40 -28 -33 0 -46 -4 -46 -14 0 -19 21 -26 43
-14 10 5 26 8 35 6 15 -3 14 -6 -6 -26 -46 -46 -114 -15 -114 52 0 21 7 45 18
57 20 22 62 25 87 7z m215 -4 c34 -23 28 -89 -10 -117 -70 -52 -145 55 -82
117 20 21 63 20 92 0z m457 -4 c28 -31 25 -88 -5 -112 -27 -22 -74 -19 -98 6
-21 20 -19 82 3 106 24 27 76 27 100 0z m146 10 c20 -11 27 -40 9 -40 -6 0
-19 5 -29 12 -39 24 -67 -27 -37 -67 14 -19 15 -19 33 -2 11 9 25 17 31 17 21
0 13 -29 -14 -46 -70 -46 -139 60 -78 120 18 18 56 21 85 6z m147 -2 c6 -7 12
-40 14 -72 l3 -60 -45 -2 c-55 -3 -80 10 -80 39 0 32 18 47 57 47 18 0 33 5
33 10 0 17 -30 23 -56 12 -19 -9 -24 -9 -24 1 0 34 75 52 98 25z m362 -63 c0
-68 -2 -75 -20 -75 -18 0 -20 7 -20 75 0 68 2 75 20 75 18 0 20 -7 20 -75z
m145 59 c10 -10 15 -35 15 -75 0 -52 -2 -59 -20 -59 -16 0 -19 8 -22 58 -3 49
-6 57 -23 57 -17 0 -20 -8 -23 -57 -3 -50 -6 -58 -22 -58 -18 0 -20 7 -20 73
l0 74 50 1 c32 0 55 -4 65 -14z m154 -10 c34 -43 28 -54 -29 -54 -51 0 -61 -8
-36 -29 10 -9 20 -9 40 0 14 7 29 9 34 5 10 -11 -36 -46 -60 -46 -27 0 -68 44
-68 73 0 37 36 77 70 77 19 0 36 -9 49 -26z m331 -22 c0 -50 13 -74 36 -65 10
3 14 22 14 59 0 47 2 54 20 54 18 0 20 -7 20 -74 l0 -74 -50 2 c-60 3 -71 12
-75 62 -5 50 4 84 21 84 10 0 14 -14 14 -48z m235 32 c16 -16 22 -119 7 -128
-18 -11 -31 12 -34 59 -3 42 -6 50 -23 50 -17 0 -20 -8 -23 -57 -3 -50 -6 -58
-22 -58 -18 0 -20 7 -20 74 l0 74 50 0 c31 1 55 -5 65 -14z m85 -59 c0 -68 -2
-75 -20 -75 -18 0 -20 7 -20 75 0 68 2 75 20 75 18 0 20 -7 20 -75z m145 59
c10 -10 15 -35 15 -75 0 -52 -2 -59 -20 -59 -16 0 -19 8 -22 58 -3 49 -6 57
-23 57 -17 0 -21 -8 -25 -55 -4 -42 -9 -56 -22 -58 -16 -3 -18 5 -18 71 l0 74
50 1 c32 0 55 -4 65 -14z m175 -66 c0 -65 -3 -81 -20 -98 -25 -25 -82 -27
-105 -4 -23 23 -5 38 28 23 30 -13 57 -6 57 15 0 11 -8 13 -34 9 -29 -4 -37
-1 -51 21 -21 31 -13 90 13 105 9 5 38 9 65 9 l47 -1 0 -79z m-847 18 c8 -20
-2 -26 -45 -26 -31 0 -38 3 -38 20 0 17 7 20 39 20 24 0 41 -5 44 -14z m1821
-127 c-3 -5 -10 -7 -15 -3 -5 3 -7 10 -3 15 3 5 10 7 15 3 5 -3 7 -10 3 -15z
m-7587 -31 c-3 -8 -6 -5 -6 6 -1 11 2 17 5 13 3 -3 4 -12 1 -19z m1287 -23
c-4 -8 -10 -12 -15 -9 -14 8 -10 24 6 24 9 0 12 -6 9 -15z m3186 -15 c0 -5 -4
-10 -10 -10 -5 0 -10 5 -10 10 0 6 5 10 10 10 6 0 10 -4 10 -10z m-630 -20 c0
-5 -4 -10 -9 -10 -6 0 -13 5 -16 10 -3 6 1 10 9 10 9 0 16 -4 16 -10z m4251
-23 c-13 -13 -26 -3 -16 12 3 6 11 8 17 5 6 -4 6 -10 -1 -17z m-8537 -1205
c-4 -271 -9 -491 -12 -488 -18 19 -32 761 -22 1191 11 462 12 477 19 490 12
20 21 -711 15 -1193z m5027 1175 c-13 -13 -26 -3 -16 12 3 6 11 8 17 5 6 -4 6
-10 -1 -17z m490 -10 c-13 -13 -26 -3 -16 12 3 6 11 8 17 5 6 -4 6 -10 -1 -17z
m-1861 -7 c0 -5 -4 -10 -10 -10 -5 0 -10 5 -10 10 0 6 5 10 10 10 6 0 10 -4
10 -10z m239 -14 c16 -19 -4 -58 -27 -54 -21 4 -28 34 -12 53 16 19 24 19 39
1z m5521 -851 c0 -690 -10 -901 -25 -530 -12 291 -12 752 0 1110 9 288 9 289
17 165 5 -69 9 -404 8 -745z m-4440 840 c0 -8 -7 -15 -15 -15 -16 0 -20 12 -8
23 11 12 23 8 23 -8z m-247 -9 c12 -8 60 -27 107 -42 80 -25 88 -26 165 -15
107 16 142 15 161 -3 23 -24 43 -33 141 -65 48 -16 108 -38 133 -50 25 -11 53
-21 63 -21 10 0 53 -17 97 -39 53 -26 87 -37 105 -33 21 3 34 -4 65 -37 22
-23 37 -47 34 -54 -3 -8 18 -42 47 -78 28 -35 56 -74 62 -87 6 -12 34 -33 66
-47 30 -14 69 -36 86 -49 21 -16 39 -22 57 -19 35 7 86 -24 92 -56 7 -34 3
-64 -9 -74 -6 -6 -6 -10 3 -14 17 -7 15 -23 -3 -23 -16 0 -18 -12 -9 -47 4
-13 12 -23 20 -23 7 0 16 -5 19 -10 4 -6 3 -10 -2 -9 -21 4 -17 -4 21 -44 83
-88 114 -126 124 -156 6 -17 8 -31 4 -31 -21 -1 28 -20 53 -21 29 -1 29 -1 5
-8 -29 -8 -29 -11 -11 -68 8 -23 18 -40 24 -36 6 3 7 1 3 -6 -4 -7 -5 -34 -1
-61 6 -45 9 -50 33 -51 26 0 26 -1 5 -9 -13 -5 -23 -15 -24 -22 -3 -44 4 -114
12 -116 5 -2 7 -8 4 -13 -3 -4 6 -11 20 -15 14 -3 25 -12 25 -19 0 -25 -20
-27 -41 -3 l-20 23 5 -25 c3 -14 8 -44 12 -67 4 -28 12 -43 21 -43 8 0 11 -5
8 -10 -4 -6 -10 -8 -15 -5 -4 3 -11 -23 -14 -58 -11 -99 -25 -140 -72 -203
-24 -32 -44 -64 -44 -69 0 -6 -7 -34 -15 -63 -11 -36 -21 -51 -33 -51 -9 0
-42 -7 -72 -15 -30 -9 -81 -16 -114 -16 l-59 0 7 -56 c7 -61 -5 -99 -62 -188
-18 -28 -32 -61 -32 -75 0 -13 -3 -22 -6 -19 -3 3 -37 -14 -76 -38 -90 -55
-144 -73 -255 -84 -48 -4 -113 -17 -143 -29 -66 -24 -169 -27 -228 -7 -22 8
-42 13 -44 10 -3 -2 8 -66 23 -141 31 -151 34 -172 20 -157 -10 11 -57 208
-66 275 -5 39 -10 48 -38 61 -18 9 -61 41 -97 72 -36 31 -77 67 -92 79 -25 22
-40 60 -53 136 -3 19 -26 67 -50 106 -25 40 -45 84 -45 98 0 23 -4 27 -29 27
-17 0 -66 -11 -110 -25 -81 -26 -122 -52 -102 -64 6 -4 12 -17 14 -29 2 -12
13 -32 25 -45 12 -13 22 -27 22 -32 0 -14 62 -75 76 -75 7 0 17 -6 21 -13 12
-20 43 -30 36 -11 -3 7 0 14 6 14 6 0 11 -5 11 -11 0 -5 5 -7 10 -4 6 3 10 0
10 -7 0 -10 2 -10 9 1 13 21 41 -26 35 -59 -4 -18 3 -45 21 -81 49 -96 107
-189 116 -184 9 6 31 -29 24 -37 -3 -2 6 -28 20 -56 28 -57 30 -68 15 -77 -5
-3 -30 36 -55 87 -76 160 -150 263 -291 403 -78 78 -137 147 -149 172 -23 48
-24 49 -87 28 -40 -14 -44 -19 -40 -40 3 -21 0 -25 -18 -25 -17 0 -21 4 -17
20 4 16 1 19 -16 15 -12 -3 -56 -10 -97 -15 -50 -6 -78 -14 -86 -25 -19 -25
-81 -24 -99 2 -8 11 -38 28 -66 37 -29 10 -115 49 -191 87 -76 38 -143 67
-147 64 -5 -2 -8 3 -7 13 0 9 -5 16 -12 14 -8 -1 -11 2 -8 7 6 8 1 27 -45 167
l-23 72 -100 7 c-163 11 -250 29 -298 63 -24 16 -67 44 -95 62 -68 41 -97 77
-118 142 -12 37 -32 68 -66 101 -27 27 -47 53 -43 58 3 5 -2 12 -11 15 -10 4
-13 13 -10 25 4 11 2 19 -5 19 -8 0 -9 10 -5 32 6 26 5 30 -9 25 -14 -6 -15
-3 -6 13 6 11 18 20 26 20 11 0 13 6 9 20 -4 14 -2 20 7 18 15 -3 15 0 4 67
-4 28 -13 53 -19 58 -9 5 -8 9 2 16 8 5 11 16 7 26 -4 11 0 22 10 30 10 7 17
26 17 43 0 18 5 29 10 25 6 -4 7 4 3 21 -4 15 -2 26 4 26 16 0 12 27 -6 34 -8
3 -12 11 -9 17 4 6 14 8 22 5 9 -4 21 1 29 11 31 41 24 42 -213 46 l-228 2
234 3 c229 2 234 2 255 25 11 13 44 40 71 62 54 42 135 125 135 137 0 5 -7 8
-15 8 -8 0 -15 4 -15 9 0 6 12 9 28 8 20 -2 27 2 26 15 -1 10 3 16 10 15 6 -1
12 14 14 35 2 26 9 39 23 43 10 4 19 10 19 15 0 8 30 19 71 26 103 15 148 34
227 92 45 33 107 73 139 88 32 15 65 35 73 44 8 9 37 27 63 39 38 19 58 22 94
17 24 -3 50 -9 56 -13 17 -11 88 -3 127 14 19 8 49 17 67 19 18 1 43 9 55 15
14 8 57 12 110 11 88 -2 200 18 247 43 34 18 66 19 94 1z m1966 -12 c2 -2 -52
-4 -121 -4 l-125 0 -131 -136 c-106 -109 -131 -141 -126 -158 12 -48 -65 -86
-100 -50 -35 34 -5 94 47 94 27 0 52 20 172 135 l140 135 120 -6 c66 -4 122
-8 124 -10z m-6239 -9 c0 -8 -7 -15 -15 -15 -8 0 -15 7 -15 15 0 8 7 15 15 15
8 0 15 -7 15 -15z m2598 -116 c112 -108 135 -126 163 -126 56 0 81 -67 37 -97
-45 -32 -88 -9 -92 49 -3 27 -14 48 -43 78 -22 23 -81 84 -130 135 -49 51 -84
91 -77 90 6 -2 70 -60 142 -129z m2702 96 c0 -8 -7 -15 -15 -15 -8 0 -15 7
-15 15 0 8 7 15 15 15 8 0 15 -7 15 -15z m2927 -35 c164 0 185 -2 201 -18 17
-17 19 -45 25 -308 3 -159 2 -372 -1 -474 l-7 -185 107 -150 c68 -94 108 -159
108 -175 0 -38 -25 -67 -64 -74 -29 -5 -1154 -7 -1634 -2 l-144 1 -25 29 c-38
44 -29 62 129 284 l59 82 -1 473 c-1 398 2 475 14 492 14 19 30 20 308 26 161
3 394 5 517 3 123 -2 307 -4 408 -4z m-3127 -30 c0 -5 -2 -10 -4 -10 -3 0 -8
5 -11 10 -3 6 -1 10 4 10 6 0 11 -4 11 -10z m-3900 -30 c0 -21 -34 -45 -50
-35 -6 3 -10 15 -10 25 0 17 7 20 53 29 4 0 7 -8 7 -19z m1830 -45 c0 -9 -6
-12 -15 -9 -8 4 -12 10 -9 15 8 14 24 10 24 -6z m-2890 -95 c0 -5 -7 -10 -15
-10 -8 0 -15 5 -15 10 0 6 7 10 15 10 8 0 15 -4 15 -10z m2260 -25 c0 -8 -4
-15 -9 -15 -13 0 -22 16 -14 24 11 11 23 6 23 -9z m660 -5 c0 -5 -4 -10 -10
-10 -5 0 -10 5 -10 10 0 6 5 10 10 10 6 0 10 -4 10 -10z m3820 0 c0 -5 -4 -10
-10 -10 -5 0 -10 5 -10 10 0 6 5 10 10 10 6 0 10 -4 10 -10z m-5852 -88 c2
-14 -2 -22 -12 -22 -19 0 -29 17 -22 36 8 22 30 12 34 -14z m-688 8 c0 -5 -2
-10 -4 -10 -3 0 -8 5 -11 10 -3 6 -1 10 4 10 6 0 11 -4 11 -10z m6560 -60 c0
-5 -4 -10 -10 -10 -5 0 -10 5 -10 10 0 6 5 10 10 10 6 0 10 -4 10 -10z m-4240
-66 c0 -8 -4 -12 -10 -9 -5 3 -10 10 -10 16 0 5 5 9 10 9 6 0 10 -7 10 -16z
m-75 -4 c3 -5 -3 -10 -14 -10 -12 0 -21 5 -21 10 0 6 6 10 14 10 8 0 18 -4 21
-10z m4168 -10 c3 -11 1 -20 -4 -20 -5 0 -9 2 -9 4 0 2 -3 11 -6 20 -3 9 -2
16 4 16 5 0 12 -9 15 -20z m-4167 -26 c-3 -8 -2 -12 3 -9 5 3 12 1 16 -5 4 -6
-10 -10 -37 -9 -36 0 -39 2 -20 9 12 5 22 14 22 20 0 5 5 10 11 10 6 0 8 -7 5
-16z m128 -25 c-3 -5 -10 -7 -15 -3 -5 3 -7 10 -3 15 3 5 10 7 15 3 5 -3 7
-10 3 -15z m2996 11 c0 -5 -5 -10 -11 -10 -5 0 -7 5 -4 10 3 6 8 10 11 10 2 0
4 -4 4 -10z m-30 -50 c0 -5 -4 -10 -10 -10 -5 0 -10 5 -10 10 0 6 5 10 10 10
6 0 10 -4 10 -10z m2870 -36 c0 -8 -7 -14 -15 -14 -15 0 -21 21 -9 33 10 9 24
-2 24 -19z m-8499 -23 c32 -39 2 -91 -52 -91 -24 0 -28 -4 -31 -32 -2 -22 -9
-34 -20 -36 -16 -3 -18 7 -18 94 l0 97 52 -5 c37 -4 57 -12 69 -27z m169 14
c0 -8 -9 -15 -20 -15 -11 0 -20 7 -20 15 0 8 9 15 20 15 11 0 20 -7 20 -15z
m799 0 c11 -11 -16 -25 -50 -25 -32 0 -39 -3 -39 -20 0 -17 7 -20 40 -20 54 0
56 -27 3 -32 -36 -3 -38 -5 -41 -40 -2 -25 -8 -38 -18 -38 -11 0 -14 19 -14
94 l0 95 58 -6 c31 -3 59 -7 61 -8z m59 3 c-3 -7 -13 -13 -23 -13 -10 0 -20 6
-22 13 -3 7 5 12 22 12 17 0 25 -5 23 -12z m292 -23 c0 -8 7 -15 15 -15 8 0
15 -5 15 -10 0 -6 -7 -13 -15 -16 -17 -7 -22 -84 -5 -84 6 0 10 -7 10 -15 0
-18 -31 -20 -48 -3 -7 7 -12 31 -12 54 0 24 -4 45 -9 48 -14 9 12 56 32 56 9
0 17 -7 17 -15z m940 -10 c0 -8 -4 -15 -10 -15 -5 0 -10 7 -10 15 0 8 5 15 10
15 6 0 10 -7 10 -15z m265 6 c3 -5 1 -12 -5 -16 -5 -3 -10 1 -10 9 0 18 6 21
15 7z m3343 -10 c10 -6 10 -10 -2 -20 -12 -10 -19 -10 -36 2 -16 11 -18 16 -8
20 20 8 32 8 46 -2z m-5758 -17 c0 -7 -9 -18 -20 -24 -15 -8 -20 -21 -20 -56
0 -38 -3 -45 -17 -42 -15 3 -19 16 -21 69 l-3 66 41 0 c27 0 40 -4 40 -13z
m58 -51 c-2 -55 -6 -68 -20 -71 -16 -3 -18 5 -18 67 0 65 2 71 20 71 19 0 21
-5 18 -67z m65 32 c17 -59 20 -60 31 -15 9 33 17 46 33 48 20 3 20 2 -5 -67
-18 -51 -30 -71 -42 -71 -12 0 -24 20 -42 71 -25 69 -25 70 -5 67 13 -2 24
-14 30 -33z m195 23 c7 -7 12 -37 12 -69 l0 -56 -42 0 c-52 -1 -78 12 -78 36
0 22 16 36 53 45 15 3 27 11 27 16 0 13 -26 13 -51 0 -14 -8 -19 -7 -19 3 0
22 22 37 55 37 17 0 36 -5 43 -12z m137 -4 c21 -22 4 -44 -19 -24 -24 19 -46
5 -46 -29 0 -33 16 -49 33 -32 13 13 47 15 47 2 0 -18 -32 -41 -56 -41 -54 0
-82 69 -48 118 18 26 65 30 89 6z m76 -24 c15 -49 25 -51 33 -4 7 33 29 54 43
41 9 -10 -47 -161 -65 -174 -22 -18 -52 -16 -52 2 0 8 7 15 15 15 26 0 26 23
0 90 -14 35 -25 65 -25 67 0 2 9 3 20 3 14 0 22 -11 31 -40z m379 -30 c0 -56
-3 -70 -15 -70 -12 0 -15 14 -15 70 0 56 3 70 15 70 12 0 15 -14 15 -70z m110
53 c0 -8 -9 -17 -20 -20 -17 -4 -20 -14 -20 -54 0 -42 -3 -49 -20 -49 -18 0
-20 7 -20 69 l0 68 40 0 c28 0 40 -4 40 -14z m104 11 c19 -7 21 -34 3 -34 -7
0 -18 5 -25 12 -9 9 -15 9 -23 1 -9 -9 -2 -16 25 -27 38 -16 49 -49 24 -74
-16 -16 -60 -15 -83 1 -24 18 -11 41 15 27 10 -5 26 -10 34 -10 29 0 17 17
-24 33 -28 11 -40 21 -40 36 0 32 51 52 94 35z m4539 -1 c-7 -2 -19 -2 -25 0
-7 3 -2 5 12 5 14 0 19 -2 13 -5z m-4953 -58 c0 -11 -11 -15 -40 -15 -29 0
-40 4 -40 15 0 11 11 15 40 15 29 0 40 -4 40 -15z m7700 -35 c0 -5 -5 -10 -11
-10 -5 0 -7 5 -4 10 3 6 8 10 11 10 2 0 4 -4 4 -10z m-2680 -9 c0 -6 -4 -13
-10 -16 -5 -3 -10 1 -10 9 0 9 5 16 10 16 6 0 10 -4 10 -9z m-3690 -56 c10
-12 10 -18 0 -30 -16 -19 -30 -19 -66 0 -17 9 -22 15 -13 15 9 0 22 7 29 15 7
8 18 15 25 15 7 0 18 -7 25 -15z m3805 -23 c-11 -3 -25 -12 -32 -21 -12 -16
-14 -14 -17 12 -1 13 43 27 59 18 6 -3 1 -7 -10 -9z m-195 -2 c0 -5 -4 -10
-10 -10 -5 0 -10 5 -10 10 0 6 5 10 10 10 6 0 10 -4 10 -10z m60 0 c0 -5 -2
-10 -4 -10 -3 0 -8 5 -11 10 -3 6 -1 10 4 10 6 0 11 -4 11 -10z m603 3 c-78
-2 -208 -2 -290 0 -81 1 -17 3 142 3 160 0 226 -2 148 -3z m2275 -1058 c1
-319 -3 -597 -7 -619 -10 -41 -50 -89 -91 -111 -19 -9 -144 -13 -525 -16 -607
-4 -844 0 -795 11 80 19 358 28 655 21 171 -4 387 -6 480 -3 186 4 201 9 235
65 19 30 20 53 20 393 0 198 3 558 8 800 6 409 7 425 13 239 4 -110 7 -461 7
-780z m-6475 928 c-68 -2 -178 -2 -245 0 -68 1 -13 3 122 3 135 0 190 -2 123
-3z m3640 -16 c3 -8 -1 -14 -8 -14 -7 0 -11 6 -8 14 3 7 6 13 8 13 2 0 5 -6 8
-13z m285 1 c6 -6 44 -15 84 -18 l73 -7 -72 -2 c-39 0 -75 -5 -78 -11 -3 -5
-17 -10 -30 -10 -30 0 -42 30 -19 47 22 16 27 16 42 1z m-3996 -45 c25 -22 23
-41 -7 -55 -20 -9 -28 -8 -43 5 -12 11 -42 17 -92 20 l-75 3 75 2 c62 2 79 6
93 22 20 24 25 25 49 3z m198 -38 c0 -8 -7 -15 -15 -15 -9 0 -12 6 -9 15 4 8
10 15 15 15 5 0 9 -7 9 -15z m3697 -41 c-3 -3 -12 -4 -19 -1 -8 3 -5 6 6 6 11
1 17 -2 13 -5z m86 -1 c-13 -2 -35 -2 -50 0 -16 2 -5 4 22 4 28 0 40 -2 28 -4z
m-3911 -60 c-40 -2 -103 -2 -140 0 -37 2 -4 3 73 3 77 0 107 -2 67 -3z m3984
-62 c9 -12 7 -19 -11 -33 -28 -22 -55 -14 -55 16 0 44 39 54 66 17z m-3906 -1
c0 -5 -4 -10 -10 -10 -5 0 -10 5 -10 10 0 6 5 10 10 10 6 0 10 -4 10 -10z
m4003 -17 c-13 -2 -35 -2 -50 0 -16 2 -5 4 22 4 28 0 40 -2 28 -4z m-4189 -11
c9 -14 -12 -35 -28 -29 -23 9 -20 37 3 37 11 0 22 -4 25 -8z m212 -19 c-10
-10 -19 5 -10 18 6 11 8 11 12 0 2 -7 1 -15 -2 -18z m-1651 -20 c104 -55 157
-149 163 -293 l4 -96 34 -22 c48 -31 56 -75 56 -292 0 -286 -5 -293 -212 -310
-169 -14 -165 -14 -340 0 -149 11 -179 20 -201 61 -6 13 -13 106 -16 238 -6
248 0 278 60 307 l35 17 1 95 c2 100 16 149 61 212 28 39 81 79 127 96 55 20
177 13 228 -13z m5453 -40 c-16 -2 -40 -2 -55 0 -16 2 -3 4 27 4 30 0 43 -2
28 -4z m-3780 -25 c2 -10 -1 -18 -7 -18 -6 0 -11 6 -11 14 0 8 -8 17 -17 20
-11 3 -8 4 7 3 15 -1 26 -9 28 -19z m-1338 -98 c0 -5 -4 -10 -10 -10 -5 0 -10
5 -10 10 0 6 5 10 10 10 6 0 10 -4 10 -10z m1280 -44 c0 -8 -4 -17 -9 -21 -12
-7 -24 12 -16 25 9 15 25 12 25 -4z m3790 -26 c0 -5 -4 -10 -10 -10 -5 0 -10
5 -10 10 0 6 5 10 10 10 6 0 10 -4 10 -10z m-5080 -35 c0 -8 -6 -15 -14 -15
-17 0 -28 14 -19 24 12 12 33 6 33 -9z m-900 -5 c0 -5 -4 -10 -10 -10 -5 0
-10 5 -10 10 0 6 5 10 10 10 6 0 10 -4 10 -10z m7239 -45 c32 -16 41 -33 41
-75 0 -48 -20 -79 -57 -89 -77 -22 -130 41 -104 122 18 52 67 70 120 42z m286
7 c6 -4 20 -22 32 -41 l21 -34 20 40 c12 22 28 40 36 40 22 0 20 -11 -10 -56
-14 -22 -28 -58 -31 -80 -7 -49 -33 -57 -33 -11 0 16 -13 52 -30 78 -37 61
-39 89 -5 64z m-5070 -20 c-3 -3 -11 0 -18 7 -9 10 -8 11 6 5 10 -3 15 -9 12
-12z m3605 -2 c0 -5 -2 -10 -4 -10 -3 0 -8 5 -11 10 -3 6 -1 10 4 10 6 0 11
-4 11 -10z m1358 -87 c2 -52 0 -63 -13 -63 -11 0 -15 11 -15 44 0 48 -18 74
-38 54 -7 -7 -12 -31 -12 -55 0 -35 -3 -43 -18 -43 -18 0 -21 24 -13 111 1 12
12 16 54 15 l52 -1 3 -62z m334 50 c21 -19 24 -71 4 -98 -9 -13 -26 -19 -51
-19 -60 0 -86 60 -49 112 18 27 69 30 96 5z m80 -35 c2 -39 7 -53 18 -53 11 0
16 14 18 53 3 44 6 52 23 52 17 0 19 -7 19 -65 0 -61 -1 -65 -22 -64 -13 0
-32 -2 -44 -6 -34 -11 -54 18 -54 81 0 47 3 54 19 54 17 0 20 -8 23 -52z m188
37 c0 -7 -9 -15 -20 -18 -16 -4 -20 -14 -20 -51 0 -39 -3 -46 -20 -46 -18 0
-20 7 -20 64 l0 63 40 0 c25 0 40 -4 40 -12z m-5775 -35 c3 -5 1 -10 -4 -10
-6 0 -11 5 -11 10 0 6 2 10 4 10 3 0 8 -4 11 -10z m-573 -95 c-3 -74 -6 -95
-18 -95 -11 0 -14 19 -14 95 0 84 2 95 18 95 15 0 17 -10 14 -95z m-552 10 l0
-75 40 0 c29 0 40 -4 40 -15 0 -12 -13 -15 -60 -15 l-60 0 0 90 c0 83 1 90 20
90 18 0 20 -7 20 -75z m1330 45 c0 -5 -2 -10 -4 -10 -3 0 -8 5 -11 10 -3 6 -1
10 4 10 6 0 11 -4 11 -10z m-1128 -27 c24 -22 24 -77 -2 -103 -41 -41 -110
-10 -110 50 0 58 69 92 112 53z m144 3 c28 -21 5 -43 -25 -24 -19 11 -24 11
-37 -6 -29 -41 -4 -75 40 -55 35 16 47 2 17 -22 -47 -39 -101 -13 -101 49 0
62 57 93 106 58z m128 1 c13 -10 17 -24 14 -66 -3 -53 -3 -54 -38 -57 -44 -4
-67 3 -74 21 -10 27 5 45 46 56 30 8 38 13 30 21 -8 8 -18 8 -36 0 -29 -13
-44 1 -26 23 15 18 60 19 84 2z m1006 -32 c0 -8 -4 -15 -10 -15 -5 0 -10 7
-10 15 0 8 5 15 10 15 6 0 10 -7 10 -15z m4948 -151 l3 -91 -51 -1 c-59 -1
-80 15 -80 61 0 48 26 80 61 75 26 -4 29 -2 29 24 0 23 4 29 18 26 14 -3 17
-17 20 -94z m-7538 71 c0 -8 -7 -15 -15 -15 -8 0 -15 7 -15 15 0 8 7 15 15 15
8 0 15 -7 15 -15z m7040 -21 c0 -35 1 -35 38 -32 34 3 37 6 40 36 2 20 9 32
18 32 11 0 14 -18 14 -90 0 -73 -3 -90 -15 -90 -13 0 -22 38 -16 73 0 4 -17 7
-39 7 l-40 0 0 -40 c0 -33 -3 -40 -20 -40 -19 0 -20 7 -20 90 0 83 1 90 20 90
16 0 20 -7 20 -36z m-855 16 c3 -5 -3 -10 -14 -10 -12 0 -21 5 -21 10 0 6 6
10 14 10 8 0 18 -4 21 -10z m-3275 -36 c0 -17 -22 -14 -28 4 -2 7 3 12 12 12
9 0 16 -7 16 -16z m4364 0 c11 -10 16 -34 16 -68 l0 -53 -50 -1 c-40 -1 -52 3
-60 19 -17 32 4 59 46 59 24 0 34 4 31 13 -2 7 -18 11 -41 9 -38 -3 -48 10
-18 27 25 15 58 13 76 -5z m76 3 c0 -5 7 -4 15 3 12 10 19 10 27 2 9 -9 5 -18
-15 -36 -20 -18 -27 -35 -27 -61 0 -24 -4 -35 -15 -35 -12 0 -15 14 -15 68 0
54 3 69 15 69 8 0 15 -5 15 -10z m245 -19 c11 -52 18 -55 30 -12 14 53 36 50
55 -6 l14 -45 9 42 c7 28 16 43 29 46 14 4 18 2 14 -9 -3 -8 -13 -39 -22 -69
-12 -42 -20 -55 -35 -55 -14 0 -20 9 -25 40 -4 22 -10 40 -14 40 -4 0 -10 -18
-14 -40 -5 -30 -11 -40 -25 -40 -14 0 -22 14 -35 58 -20 71 -20 82 -2 82 8 0
17 -14 21 -32z m256 22 c15 -9 19 -22 19 -68 l0 -58 -50 -2 c-39 -2 -51 2 -59
16 -15 28 13 62 50 62 16 0 29 5 29 10 0 17 -27 22 -50 10 -25 -13 -33 -9 -24
13 9 25 53 33 85 17z m129 -10 c0 -13 -7 -20 -19 -20 -17 0 -20 -8 -23 -47 -2
-35 -7 -48 -18 -48 -11 0 -16 15 -18 64 -3 60 -2 63 17 58 12 -3 24 -1 27 4
10 17 34 9 34 -11z m110 0 c11 -11 20 -29 20 -40 0 -17 -7 -20 -45 -20 -36 0
-43 -3 -38 -16 4 -12 14 -14 44 -9 42 7 53 -7 20 -25 -29 -15 -67 -12 -85 6
-25 24 -21 90 6 108 30 21 54 20 78 -4z m-8186 -41 c-3 -5 -10 -7 -15 -3 -5 3
-7 10 -3 15 3 5 10 7 15 3 5 -3 7 -10 3 -15z m1666 -89 c0 -73 -3 -90 -15 -90
-12 0 -15 17 -15 90 0 73 3 90 15 90 12 0 15 -17 15 -90z m-370 58 c28 -30 28
-100 -1 -127 -24 -22 -63 -32 -101 -24 -28 5 -28 6 -28 89 l0 84 55 0 c43 0
58 -5 75 -22z m1230 -4 c0 -8 7 -14 15 -14 8 0 15 -7 15 -15 0 -8 -7 -15 -15
-15 -22 0 -20 -69 3 -86 16 -12 16 -13 -2 -20 -32 -12 -51 9 -54 60 -2 25 -7
46 -13 46 -5 0 -9 7 -9 15 0 8 5 15 10 15 6 0 10 6 10 14 0 15 20 26 33 19 4
-2 7 -11 7 -19z m380 -24 c23 -23 24 -30 9 -64 -12 -25 -46 -40 -71 -31 -7 3
-71 -51 -148 -124 -74 -72 -137 -128 -139 -125 -3 3 -1 8 4 12 6 4 65 64 133
134 105 108 122 131 122 158 0 55 52 78 90 40z m-1467 -2 c9 -7 18 -24 19 -38
3 -23 0 -25 -36 -25 -22 0 -41 -5 -43 -12 -7 -19 17 -26 43 -12 27 14 37 9 29
-14 -14 -34 -95 -28 -109 8 -27 71 40 135 97 93z m158 -4 c37 -45 -1 -130 -53
-120 -25 5 -28 3 -28 -23 0 -23 -4 -28 -18 -24 -16 4 -18 13 -16 56 2 29 3 68
4 88 l0 36 49 1 c33 1 53 -3 62 -14z m206 4 c31 -40 19 -101 -22 -120 -53 -24
-106 32 -84 89 6 15 16 31 22 35 19 12 74 9 84 -4z m77 -30 c12 -48 22 -48 30
-2 6 32 29 54 42 41 5 -5 -25 -103 -46 -149 -14 -31 -60 -40 -60 -13 0 8 7 15
15 15 20 0 19 9 -10 85 l-25 66 23 -3 c16 -2 24 -13 31 -40z m274 30 c17 -15
16 -114 -2 -121 -21 -8 -26 2 -26 55 0 42 -3 49 -17 46 -14 -2 -19 -15 -21
-50 -2 -29 -8 -48 -18 -52 -11 -4 -14 6 -14 49 0 48 -2 55 -20 55 -22 0 -23
-4 -24 -65 -1 -29 -5 -41 -18 -43 -16 -3 -18 5 -18 66 l0 70 83 0 c45 0 88 -5
95 -10z m150 -21 c18 -36 9 -47 -39 -47 -28 0 -39 -4 -36 -12 4 -14 31 -15 60
-3 24 10 23 -21 -2 -35 -30 -16 -50 -12 -76 15 -29 28 -32 61 -9 93 24 34 84
28 102 -11z m142 7 c6 -14 10 -43 10 -65 0 -32 -3 -39 -20 -39 -17 0 -20 7
-20 50 0 42 -3 50 -19 50 -23 0 -31 -19 -31 -72 0 -27 -4 -38 -12 -36 -8 3
-14 29 -16 70 l-3 65 51 2 c46 1 52 -2 60 -25z m3585 -4 c0 -8 -10 -16 -22
-18 -22 -3 -32 16 -16 32 12 11 38 2 38 -14z m-2885 -10 c0 -11 -4 -20 -9 -20
-5 0 -7 9 -4 20 3 11 7 20 9 20 2 0 4 -9 4 -20z m-3080 -29 c0 -6 -4 -13 -10
-16 -5 -3 -10 1 -10 9 0 9 5 16 10 16 6 0 10 -4 10 -9z m4135 -61 c3 -5 1 -10
-4 -10 -6 0 -11 5 -11 10 0 6 2 10 4 10 3 0 8 -4 11 -10z m1615 -20 c0 -5 -7
-10 -15 -10 -8 0 -15 5 -15 10 0 6 7 10 15 10 8 0 15 -4 15 -10z m-1700 -40
c0 -5 -2 -10 -4 -10 -3 0 -8 5 -11 10 -3 6 -1 10 4 10 6 0 11 -4 11 -10z
m1800 -51 c0 -5 -7 -9 -15 -9 -15 0 -20 12 -9 23 8 8 24 -1 24 -14z m-1510
-153 c0 -12 -5 -7 -19 24 -11 24 -11 24 3 6 9 -11 16 -24 16 -30z m2039 -113
c19 -32 42 -69 51 -83 9 -14 24 -40 34 -57 l16 -33 -62 -112 -63 -113 -105 -2
c-67 -1 -98 1 -85 7 11 5 54 9 95 10 l75 1 58 98 c31 54 57 104 57 110 0 7
-26 57 -57 112 l-57 99 -40 1 c-39 1 -40 2 -11 9 55 14 60 11 94 -47z m-609
32 c0 -8 -4 -15 -10 -15 -5 0 -10 7 -10 15 0 8 5 15 10 15 6 0 10 -7 10 -15z
m-1750 -50 c0 -8 -7 -15 -15 -15 -16 0 -20 12 -8 23 11 12 23 8 23 -8z m1530
-5 c0 -5 -4 -10 -10 -10 -5 0 -10 5 -10 10 0 6 5 10 10 10 6 0 10 -4 10 -10z
m-1080 -100 c16 -33 30 -63 30 -67 0 -10 -69 109 -70 120 0 19 12 2 40 -53z
m-3520 31 c85 -5 259 -10 385 -11 127 -1 253 -5 280 -10 31 -4 -98 -9 -330
-11 -397 -4 -997 0 -1004 7 -11 10 17 13 199 20 107 3 202 11 210 15 8 5 35 7
60 4 25 -3 115 -9 200 -14z m4450 -1 c0 -5 -5 -10 -11 -10 -5 0 -7 5 -4 10 3
6 8 10 11 10 2 0 4 -4 4 -10z m-1210 -90 c0 -5 -4 -10 -10 -10 -5 0 -10 5 -10
10 0 6 5 10 10 10 6 0 10 -4 10 -10z m477 -212 c4 1 8 -6 8 -15 0 -13 -10 -18
-37 -19 -41 -3 -47 6 -23 30 8 8 15 23 15 33 1 14 4 13 15 -7 7 -14 17 -24 22
-22z m2083 -76 c0 -4 21 -14 48 -21 26 -8 52 -17 57 -22 6 -4 148 -11 315 -15
168 -4 314 -10 325 -14 10 -4 -125 -10 -300 -13 -307 -5 -323 -7 -388 -30
l-69 -25 -61 25 c-51 20 -86 25 -200 30 -75 3 -135 8 -133 10 2 3 63 8 134 13
123 8 164 19 242 61 20 10 30 11 30 1z m-1750 -32 c0 -5 -4 -10 -10 -10 -5 0
-10 5 -10 10 0 6 5 10 10 10 6 0 10 -4 10 -10z m-3332 -34 c3 -3 2 -9 -2 -13
-11 -11 -900 -8 -917 3 -9 6 44 11 146 15 186 7 764 3 773 -5z m2897 -197
c686 -15 710 -23 95 -32 -595 -8 -1503 1 -1455 15 17 5 197 12 400 17 204 4
399 8 435 9 36 1 272 -3 525 -9z m-295 -486 c40 -5 49 -8 35 -14 -29 -11 -353
-11 -360 0 -3 5 5 12 17 14 38 7 249 7 308 0z"/>
<path d="M3330 7325 c0 -5 5 -17 10 -25 5 -8 10 -10 10 -5 0 6 -5 17 -10 25
-5 8 -10 11 -10 5z"/>
<path d="M3046 7283 c-6 -14 -5 -15 5 -6 7 7 10 15 7 18 -3 3 -9 -2 -12 -12z"/>
<path d="M3360 7255 c0 -5 5 -17 10 -25 5 -8 10 -10 10 -5 0 6 -5 17 -10 25
-5 8 -10 11 -10 5z"/>
<path d="M3137 6883 c-14 -24 -35 -83 -29 -83 4 0 14 20 23 45 15 41 17 57 6
38z"/>
<path d="M2935 6855 l5 -30 -14 25 c-14 25 -16 23 -70 -93 -31 -64 -56 -120
-56 -123 0 -3 30 -4 67 -2 l67 3 28 70 c42 101 60 156 54 163 -3 3 -6 -3 -6
-14 0 -11 -3 -15 -8 -8 -11 16 -44 14 -38 -3 9 -22 -14 -3 -25 21 -8 18 -9 16
-4 -9z"/>
<path d="M3036 6845 c-9 -26 -7 -32 5 -12 6 10 9 21 6 23 -2 3 -7 -2 -11 -11z"/>
<path d="M3435 6838 c-11 -11 -28 -17 -37 -14 -10 2 -20 1 -22 -3 -3 -4 -42
-4 -88 0 -45 4 -86 5 -89 3 -4 -2 -10 2 -12 8 -4 10 -8 9 -16 -2 -9 -13 -11
-12 -11 3 0 10 -4 15 -10 12 -5 -3 -10 -15 -10 -25 0 -18 10 -20 128 -22 l127
-3 35 -82 35 -83 67 0 c38 0 68 2 68 5 0 10 -92 210 -100 219 -6 5 -15 4 -24
-3 -8 -6 -16 -8 -18 -3 -1 5 -12 1 -23 -10z"/>
<path d="M3426 6665 c3 -11 9 -28 11 -37 5 -16 17 -18 97 -16 l91 2 -86 3
c-85 4 -86 4 -103 36 -9 18 -14 23 -10 12z"/>
<path d="M3731 7374 c0 -11 3 -14 6 -6 3 7 2 16 -1 19 -3 4 -6 -2 -5 -13z"/>
<path d="M3785 6839 c-4 -6 -13 -8 -21 -5 -11 4 -14 -14 -14 -100 l0 -105 55
3 c30 2 55 6 55 11 0 4 0 49 0 101 0 87 -1 94 -19 89 -10 -3 -22 0 -25 6 -9
14 -23 14 -31 0z"/>
<path d="M3798 6613 c17 -2 47 -2 65 0 17 2 3 4 -33 4 -36 0 -50 -2 -32 -4z"/>
<path d="M5110 6824 c0 -6 -10 -9 -23 -7 -23 5 -24 2 -30 -83 -3 -48 -4 -91
-1 -96 3 -4 30 -8 60 -8 l54 0 -1 73 c-1 63 -15 147 -18 107 -1 -13 -2 -13
-11 0 -5 8 -10 11 -10 5 0 -5 -5 -3 -10 5 -5 8 -10 10 -10 4z"/>
<path d="M4691 6728 l-1 -98 55 0 55 0 0 93 0 92 -45 0 c-38 0 -45 -3 -46 -20
-1 -17 -2 -16 -9 5 -5 16 -8 -8 -9 -72z"/>
<path d="M4718 6613 c6 -2 18 -2 25 0 6 3 1 5 -13 5 -14 0 -19 -2 -12 -5z"/>
<path d="M4330 7043 c8 -3 30 -20 49 -37 25 -23 31 -26 23 -10 -13 24 -55 54
-74 53 -9 0 -8 -2 2 -6z"/>
<path d="M4001 6844 c0 -11 3 -14 6 -6 3 7 2 16 -1 19 -3 4 -6 -2 -5 -13z"/>
<path d="M4030 6826 c0 -36 41 -106 83 -140 129 -105 334 -76 403 56 14 27 13
27 -23 37 -25 7 -39 7 -41 1 -2 -6 -8 -10 -14 -10 -6 0 -8 7 -4 15 11 31 -18
9 -40 -30 -14 -26 -81 -47 -124 -40 -19 4 -49 17 -66 30 -17 13 -35 21 -39 17
-5 -4 -5 -2 -2 5 7 12 -23 73 -35 73 -5 0 -8 -8 -9 -17 0 -15 -2 -15 -9 2 -7
16 -9 17 -9 3 -1 -11 -7 -15 -21 -11 -13 3 -20 0 -20 -8 -1 -8 -7 -3 -15 11
-12 21 -14 22 -15 6z"/>
<path d="M4520 6720 c-6 -11 -8 -20 -6 -20 3 0 10 9 16 20 6 11 8 20 6 20 -3
0 -10 -9 -16 -20z"/>
<path d="M4486 6671 c-9 -10 -35 -26 -56 -36 -22 -10 -38 -20 -36 -22 7 -7 80
34 100 56 11 12 17 21 14 21 -3 0 -12 -8 -22 -19z"/>
<path d="M4105 6660 c7 -11 65 -43 65 -36 0 2 -16 13 -36 25 -19 12 -32 16
-29 11z"/>
<path d="M5528 7054 c-15 -8 -33 -24 -39 -35 -8 -15 -8 -19 0 -15 7 5 9 1 5
-8 -3 -9 -10 -13 -15 -10 -5 3 -6 -2 -3 -10 4 -12 30 -15 122 -18 65 -2 119
-2 121 -1 8 4 -17 58 -26 58 -6 0 -15 4 -20 9 -5 5 -3 6 5 2 6 -4 12 -3 12 3
0 17 -57 41 -97 41 -21 -1 -50 -7 -65 -16z m109 -2 c6 -4 -15 -7 -47 -7 -32 0
-53 3 -47 7 7 4 28 8 47 8 19 0 40 -4 47 -8z"/>
<path d="M5548 6853 c45 -2 119 -2 165 0 45 1 8 3 -83 3 -91 0 -128 -2 -82 -3z"/>
<path d="M5311 6824 c0 -11 3 -14 6 -6 3 7 2 16 -1 19 -3 4 -6 -2 -5 -13z"/>
<path d="M5345 6800 c10 -35 44 -92 69 -113 101 -86 281 -87 370 -3 20 18 36
38 36 43 0 6 -20 16 -45 22 -40 10 -47 9 -81 -14 -63 -43 -131 -45 -182 -5
-13 11 -29 17 -35 13 -6 -3 -7 -1 -3 5 3 6 -4 21 -16 33 -13 12 -17 18 -9 14
8 -5 12 -4 8 1 -3 5 -27 9 -54 9 -26 0 -52 4 -56 10 -5 5 -5 -1 -2 -15z"/>
<path d="M5320 6786 c0 -11 30 -66 36 -66 2 0 -3 15 -12 33 -19 36 -24 44 -24
33z"/>
<path d="M5360 6707 c0 -2 15 -16 33 -33 l32 -29 -29 33 c-28 30 -36 37 -36
29z"/>
<path d="M5789 6663 c-13 -16 -12 -17 4 -4 9 7 17 15 17 17 0 8 -8 3 -21 -13z"/>
<path d="M5653 6603 c9 -2 23 -2 30 0 6 3 -1 5 -18 5 -16 0 -22 -2 -12 -5z"/>
<path d="M6107 6833 c-5 -7 -16 -13 -27 -13 -10 0 -21 -8 -24 -17 -6 -15 -8
-15 -16 -3 -7 11 -10 12 -10 2 0 -7 -4 -10 -10 -7 -6 4 -10 -25 -10 -79 l0
-86 50 0 c33 0 52 5 56 13 8 22 0 203 -9 190z"/>
<path d="M6418 6830 c-2 -5 -12 -10 -23 -12 -38 -6 -45 -24 -45 -107 l0 -81
58 0 57 0 -3 83 c-4 115 -5 120 -24 123 -9 1 -18 -2 -20 -6z"/>
<path d="M6696 6776 c-3 -28 -6 -72 -6 -98 l0 -48 61 0 61 0 -4 89 c-1 49 -6
93 -10 97 -4 4 -28 8 -52 9 l-44 1 -6 -50z"/>
<path d="M6738 6613 c17 -2 47 -2 65 0 17 2 3 4 -33 4 -36 0 -50 -2 -32 -4z"/>
<path d="M6991 6965 c0 -5 6 -21 14 -35 8 -14 14 -20 14 -15 0 6 -6 21 -14 35
-8 14 -14 21 -14 15z"/>
<path d="M7020 6895 c0 -5 5 -17 10 -25 5 -8 10 -10 10 -5 0 6 -5 17 -10 25
-5 8 -10 11 -10 5z"/>
<path d="M7140 6888 c0 -12 -5 -15 -17 -11 -16 6 -16 5 -5 -10 12 -14 11 -16
-7 -14 -12 1 -21 5 -21 9 0 4 -7 8 -15 8 -12 0 -11 -9 7 -52 56 -138 54 -128
26 -199 -15 -35 -34 -81 -42 -101 l-16 -38 59 0 59 0 40 93 c73 168 101 247
95 264 -5 12 -3 14 7 8 9 -5 11 -4 6 4 -4 6 -2 20 6 29 11 15 11 15 -3 5 -9
-7 -20 -9 -24 -5 -5 4 -5 2 -2 -5 4 -6 3 -22 -2 -35 -9 -21 -10 -21 -11 -3 0
11 -5 27 -11 35 -8 11 -9 9 -3 -10 6 -22 5 -23 -10 -11 -11 9 -16 10 -16 2 0
-7 -4 -9 -10 -6 -6 4 -7 -1 -3 -11 4 -11 2 -15 -4 -11 -6 4 -14 -1 -18 -11 -5
-13 -13 -5 -35 38 -16 30 -29 47 -30 38z"/>
<path d="M7356 6885 c-9 -26 -7 -32 5 -12 6 10 9 21 6 23 -2 3 -7 -2 -11 -11z"/>
<path d="M7041 6845 c0 -5 6 -21 14 -35 8 -14 14 -20 14 -15 0 6 -6 21 -14 35
-8 14 -14 21 -14 15z"/>
<path d="M7332 6825 c-17 -37 -14 -45 4 -12 9 16 14 31 11 33 -2 2 -9 -7 -15
-21z"/>
<path d="M7070 6775 c0 -5 5 -17 10 -25 5 -8 10 -10 10 -5 0 6 -5 17 -10 25
-5 8 -10 11 -10 5z"/>
<path d="M7306 6765 c-9 -26 -7 -32 5 -12 6 10 9 21 6 23 -2 3 -7 -2 -11 -11z"/>
<path d="M7067 6463 c18 -2 50 -2 70 0 21 2 7 4 -32 4 -38 0 -55 -2 -38 -4z"/>
<path d="M1562 6521 c69 -44 181 -88 267 -106 42 -9 87 -18 100 -21 l24 -5 -7
-134 c-6 -122 -39 -297 -71 -380 -5 -12 5 -6 23 15 18 21 39 63 52 105 12 39
30 100 41 136 16 53 19 89 17 189 l-3 123 -91 18 c-117 22 -253 59 -260 70 -3
5 -10 9 -17 9 -6 0 -2 -7 9 -16 18 -14 18 -15 -6 -8 -14 4 -34 7 -44 6 -10 0
-28 6 -40 14 -11 7 -25 14 -30 14 -6 0 11 -13 36 -29z"/>
<path d="M1634 6435 c8 -8 13 -24 11 -35 -2 -11 0 -20 4 -20 13 0 10 54 -3 62
-20 13 -28 8 -12 -7z"/>
<path d="M1676 6406 c-3 -11 -6 -39 -7 -61 -1 -22 -3 -32 -6 -22 -3 10 -14 17
-29 17 -22 0 -30 -13 -25 -42 0 -5 -6 -8 -14 -8 -9 0 -12 -6 -8 -16 6 -15 7
-15 19 1 7 10 10 23 7 29 -4 6 1 5 10 -3 17 -14 13 -27 -18 -56 -6 -5 -20 -23
-32 -38 l-22 -29 2 30 c1 17 6 30 11 29 6 -1 12 6 14 16 2 9 -1 17 -7 17 -6 0
-8 -7 -5 -15 5 -11 2 -13 -10 -9 -9 3 -16 1 -16 -5 0 -6 -8 -8 -17 -4 -16 6
-17 5 -3 -12 8 -10 10 -16 4 -12 -14 8 -21 -7 -20 -43 1 -15 7 -25 16 -25 8 0
14 6 12 13 -1 8 2 11 8 7 5 -3 10 -13 10 -21 0 -8 -4 -12 -10 -9 -5 3 -10 1
-10 -5 0 -6 -4 -8 -10 -5 -18 11 -11 -7 10 -25 11 -10 23 -31 26 -48 5 -26 1
-36 -25 -63 l-32 -31 -8 -177 -8 -176 -1 178 c-2 173 -3 178 -22 172 -15 -5
-23 0 -31 19 -7 14 -16 23 -21 20 -5 -3 -2 -15 8 -25 9 -10 12 -19 7 -19 -13
0 -34 25 -32 36 4 24 -2 54 -10 49 -5 -3 -12 9 -14 27 -3 26 -4 22 -5 -14 -1
-28 2 -48 9 -48 5 0 8 -3 5 -8 -8 -13 23 -45 46 -47 17 -2 22 -7 20 -21 -7
-33 -24 -33 -52 0 -40 46 -50 70 -50 121 0 46 -1 47 -27 41 -17 -4 -23 -3 -15
2 8 5 -11 13 -53 22 -36 7 -65 18 -65 22 0 5 -5 6 -10 3 -6 -4 -8 -10 -6 -14
3 -4 -11 -5 -30 -3 -19 2 -34 8 -34 13 0 5 -8 9 -18 9 -14 0 -17 -7 -14 -45
l4 -45 77 -2 c165 -4 145 3 151 -58 5 -48 10 -57 55 -96 28 -24 53 -44 58 -44
4 0 6 -39 5 -87 l-2 -88 -3 84 c-4 80 -4 83 -22 67 -15 -13 -21 -14 -27 -5 -4
7 -2 15 5 17 7 2 -9 26 -38 57 -41 43 -51 61 -51 88 0 33 -1 34 -46 41 -69 9
-154 7 -154 -4 0 -5 4 -19 9 -32 5 -13 19 -50 32 -83 30 -80 79 -155 156 -242
71 -80 190 -163 203 -143 6 9 9 9 12 -1 11 -32 191 107 262 202 56 75 126 215
133 267 l6 42 -102 0 -101 0 0 -42 c0 -38 -5 -46 -57 -95 l-58 -53 -6 -82 -6
-83 -1 79 -2 79 60 63 c53 55 60 67 60 102 l0 40 111 7 c68 5 112 12 114 19
17 55 15 66 -9 72 -14 3 -31 2 -38 -3 -7 -4 -26 -9 -43 -10 -16 -1 -67 -7
-112 -14 l-83 -13 6 -50 c7 -57 -9 -87 -69 -127 -26 -18 -25 -14 11 19 42 41
42 42 42 112 l0 70 59 0 c69 0 118 15 132 41 11 22 44 25 52 5 3 -7 19 -15 36
-18 l30 -4 6 60 c4 34 5 85 3 115 l-3 54 -85 17 c-47 10 -101 22 -122 28 -33
9 -37 8 -42 -12z m138 -52 c32 -12 12 -64 -25 -64 -9 0 -37 -20 -61 -43 -62
-62 -96 -83 -111 -68 -8 8 -7 11 5 11 26 0 148 112 148 136 0 32 13 40 44 28z
m-596 -376 c7 -7 12 -21 12 -32 0 -11 25 -46 56 -77 52 -53 56 -60 59 -110 3
-53 -5 -69 -32 -69 -15 0 -17 36 -3 45 6 3 10 23 10 43 0 32 -8 45 -52 89 -29
28 -64 53 -78 55 -28 3 -38 31 -20 53 15 18 32 19 48 3z m592 -13 c16 -20 -5
-49 -31 -42 -22 6 -121 -103 -130 -142 -6 -25 -7 -25 -8 4 -1 25 10 42 54 85
30 30 55 61 55 70 0 35 38 51 60 25z m-145 -250 c0 -30 -39 -27 -43 3 -3 20 0
23 20 20 15 -2 23 -10 23 -23z"/>
<path d="M1782 6328 c6 -18 28 -21 28 -4 0 9 -7 16 -16 16 -9 0 -14 -5 -12
-12z"/>
<path d="M1180 5955 c0 -9 5 -15 11 -13 6 2 11 8 11 13 0 5 -5 11 -11 13 -6 2
-11 -4 -11 -13z"/>
<path d="M1327 5723 c-4 -3 -7 -11 -7 -17 0 -6 5 -5 12 2 6 6 9 14 7 17 -3 3
-9 2 -12 -2z"/>
<path d="M1767 5964 c-13 -13 -7 -24 14 -24 11 0 19 5 17 12 -5 14 -22 21 -31
12z"/>
<path d="M1630 5716 c0 -9 7 -16 16 -16 17 0 14 22 -4 28 -7 2 -12 -3 -12 -12z"/>
<path d="M1590 6366 c0 -2 7 -6 15 -10 8 -3 15 -1 15 4 0 6 -7 10 -15 10 -8 0
-15 -2 -15 -4z"/>
<path d="M1640 6360 c0 -5 5 -10 10 -10 6 0 10 5 10 10 0 6 -4 10 -10 10 -5 0
-10 -4 -10 -10z"/>
<path d="M1531 6314 c0 -11 3 -14 6 -6 3 7 2 16 -1 19 -3 4 -6 -2 -5 -13z"/>
<path d="M1011 6247 c0 -16 -5 -26 -9 -23 -10 6 11 -171 28 -236 7 -27 16 -48
21 -48 5 0 9 -9 9 -20 0 -12 9 -39 20 -61 12 -23 19 -50 16 -62 -3 -12 -3 -16
0 -9 5 10 9 9 20 -5 19 -25 17 -38 -3 -22 -14 11 -13 8 2 -11 11 -14 27 -32
36 -40 8 -8 18 -23 22 -34 4 -10 13 -16 21 -13 15 6 39 -15 31 -26 -3 -4 -2
-5 2 -2 3 3 13 -5 22 -18 9 -12 14 -22 11 -22 -7 0 34 -49 78 -91 23 -23 66
-54 95 -69 l52 -28 65 34 c74 38 88 49 180 141 74 74 130 171 123 213 -5 24
-7 23 -36 -21 -66 -99 -193 -216 -289 -265 -36 -18 -40 -19 -71 -3 -155 80
-270 203 -350 374 -43 91 -57 146 -85 335 -5 33 -10 47 -11 32z"/>
<path d="M1175 6176 c10 -14 19 -26 22 -26 7 0 -17 39 -28 46 -6 3 -3 -5 6
-20z"/>
<path d="M1290 6180 c-9 -6 -10 -10 -3 -10 6 0 15 5 18 10 8 12 4 12 -15 0z"/>
<path d="M1075 6170 c-3 -5 -1 -10 4 -10 6 0 11 5 11 10 0 6 -2 10 -4 10 -3 0
-8 -4 -11 -10z"/>
<path d="M1820 6156 c0 -9 7 -16 16 -16 17 0 14 22 -4 28 -7 2 -12 -3 -12 -12z"/>
<path d="M1222 6147 c9 -9 28 -17 42 -17 27 0 34 14 14 26 -7 5 -8 3 -3 -6 6
-10 4 -11 -11 -6 -10 5 -28 11 -39 14 -19 5 -19 5 -3 -11z"/>
<path d="M1487 6074 c8 -4 9 -13 3 -29 -11 -29 -3 -36 28 -24 35 13 22 51 -20
55 -13 2 -18 0 -11 -2z m37 -30 c3 -8 2 -12 -4 -9 -6 3 -10 10 -10 16 0 14 7
11 14 -7z"/>
<path d="M3336 6297 c-3 -14 -9 -32 -12 -41 -5 -12 0 -16 20 -16 24 0 26 3 20
28 -12 47 -21 57 -28 29z"/>
<path d="M3764 6319 c-10 -17 13 -36 27 -22 12 12 4 33 -11 33 -5 0 -12 -5
-16 -11z"/>
<path d="M3750 6221 c0 -24 15 -35 36 -27 12 4 13 10 4 26 -14 26 -40 26 -40
1z"/>
<path d="M3097 6266 c-5 -12 1 -16 24 -16 20 0 29 4 27 13 -7 18 -45 20 -51 3z"/>
<path d="M4377 6273 c-14 -13 -6 -23 18 -23 16 0 25 6 25 15 0 15 -31 21 -43
8z"/>
<path d="M4830 6266 c0 -11 9 -16 26 -16 31 0 28 23 -4 28 -15 2 -22 -2 -22
-12z"/>
<path d="M5042 6268 c-30 -30 1 -94 33 -68 20 17 19 66 -1 74 -20 8 -18 8 -32
-6z"/>
<path d="M5490 6261 c-14 -27 -13 -37 5 -55 31 -30 67 13 45 54 -14 25 -36 26
-50 1z"/>
<path d="M5794 6219 c-3 -6 -1 -16 4 -21 13 -13 45 8 36 23 -7 12 -31 11 -40
-2z"/>
<path d="M6447 6273 c-15 -14 -6 -23 23 -23 22 0 28 4 24 15 -6 15 -35 20 -47
8z"/>
<path d="M7394 6255 c-8 -34 1 -55 25 -55 22 0 38 38 27 65 -9 25 -45 18 -52
-10z"/>
<path d="M4939 5860 c-20 -5 -15 -9 33 -29 31 -12 65 -33 77 -45 21 -22 48
-91 31 -81 -4 3 -11 -6 -14 -20 -9 -34 -19 -31 -39 10 -11 22 -24 35 -36 35
-11 0 -24 6 -28 14 -15 25 -50 37 -77 26 -14 -5 -26 -12 -26 -15 0 -4 5 -3 10
0 6 3 10 0 10 -8 0 -10 8 -13 24 -10 18 4 29 -3 49 -29 44 -59 94 -168 77
-168 -6 0 -10 6 -10 13 0 6 -11 26 -25 42 -23 28 -24 29 -25 8 0 -13 -4 -23
-9 -23 -14 0 -21 26 -9 38 6 6 -1 13 -22 21 -22 7 -30 15 -27 25 5 12 1 13
-18 6 -14 -5 -25 -7 -25 -3 0 8 -33 -28 -108 -118 -34 -42 -62 -83 -62 -93 0
-9 3 -15 8 -13 4 3 7 -23 6 -56 0 -34 3 -77 8 -95 6 -23 5 -42 -4 -63 -15 -33
-28 -38 -28 -10 0 11 -6 26 -14 33 -8 8 -16 23 -20 34 -3 10 -3 -19 1 -66 3
-47 6 -120 6 -162 0 -43 3 -78 8 -78 4 0 12 -15 19 -34 8 -27 8 -41 -3 -67
l-14 -34 4 45 c3 31 0 51 -11 65 -14 19 -15 18 -6 -15 14 -50 13 -58 -15 -86
-20 -20 -34 -25 -63 -22 -62 5 -78 54 -41 123 20 37 22 55 23 256 1 200 0 215
-16 211 -10 -2 -32 8 -49 22 -67 56 -196 104 -146 54 22 -21 22 -29 0 -21 -12
5 -15 2 -10 -10 3 -9 0 -23 -8 -30 -7 -8 -17 -46 -20 -85 l-7 -70 61 -17 c84
-24 137 -60 156 -107 8 -21 15 -46 14 -56 0 -9 -5 -3 -10 14 -14 49 -104 126
-123 106 -4 -3 -11 -1 -15 6 -6 10 -15 10 -35 2 -23 -8 -26 -13 -17 -24 8 -9
8 -16 2 -20 -6 -4 -15 2 -20 13 -11 20 -27 19 -84 -4 -28 -12 -97 -115 -97
-146 0 -40 -10 -59 -31 -59 -11 0 -19 -7 -19 -17 0 -9 -3 -14 -6 -10 -4 3 -13
-1 -21 -9 -9 -9 -22 -12 -32 -8 -33 15 -162 -9 -198 -38 -16 -13 -26 7 -10 21
20 16 80 39 133 51 27 6 57 19 67 28 25 23 54 80 62 124 6 33 4 38 -35 69 -23
19 -54 57 -68 84 -21 43 -26 47 -33 30 -4 -11 -8 -30 -8 -42 -1 -13 -6 -23
-12 -23 -5 0 -8 -4 -5 -9 3 -5 0 -24 -8 -43 -8 -18 -16 -47 -18 -65 -4 -35
-67 -113 -92 -113 -9 0 -16 -5 -16 -11 0 -5 6 -7 13 -3 8 5 8 2 -2 -9 -7 -9
-25 -17 -40 -17 -29 0 -80 -34 -68 -46 4 -4 2 -12 -3 -19 -7 -8 0 -27 20 -59
34 -52 35 -58 18 -55 -20 2 -58 -12 -58 -22 0 -14 -33 -48 -42 -43 -16 10 -55
-28 -68 -66 -15 -46 -8 -119 16 -160 10 -15 33 -36 53 -45 31 -15 33 -18 17
-25 -26 -9 -11 -17 44 -25 45 -6 48 7 5 18 -12 3 -5 5 16 6 33 1 37 4 35 26 0
14 -5 25 -9 25 -5 0 -5 5 -2 10 4 6 10 8 15 5 5 -3 18 3 30 15 35 35 28 105
-19 177 -21 33 -44 64 -50 67 -6 4 -11 13 -11 19 0 17 66 -59 96 -109 19 -32
24 -54 23 -95 -2 -56 13 -109 31 -109 5 0 10 -14 10 -31 0 -17 4 -39 10 -49
13 -25 83 -50 147 -53 29 -1 53 -6 53 -11 0 -8 -82 -2 -140 10 l-25 6 25 -21
c35 -29 25 -26 -54 14 -44 22 -85 35 -110 36 -33 0 -37 2 -21 9 13 6 -14 9
-80 7 l-100 -2 -1 33 c-1 18 -13 56 -28 85 -40 80 -44 141 -11 201 14 27 24
51 21 53 -13 14 -86 11 -101 -3 -31 -32 -16 -238 17 -218 6 4 8 -2 3 -16 -5
-15 -4 -20 4 -16 7 5 11 -2 11 -16 1 -21 2 -22 14 -5 7 9 16 17 20 17 13 0 5
-23 -14 -40 -20 -17 -20 -17 7 -44 14 -15 19 -24 11 -21 -53 21 6 -85 62 -111
19 -9 42 -23 51 -31 9 -8 26 -15 37 -16 11 0 18 -6 15 -13 -2 -7 5 -15 16 -19
12 -3 19 -10 16 -15 -2 -4 17 -17 44 -29 52 -22 217 -39 265 -27 27 7 35 30
14 40 -10 5 -10 7 0 12 6 3 12 18 12 34 0 23 -7 30 -39 43 -22 9 -42 21 -46
27 -4 6 11 2 34 -9 l41 -21 53 52 c29 29 75 70 101 92 30 24 45 43 42 53 -3 8
-2 11 3 8 5 -3 12 -1 15 3 3 5 -12 21 -32 36 -56 40 -162 119 -190 140 -16 13
-43 21 -76 22 -38 2 -55 8 -68 24 -40 50 -5 120 60 120 45 0 72 -30 72 -80 0
-36 6 -47 47 -85 25 -24 72 -58 105 -75 l59 -32 42 26 c63 37 97 73 97 102 0
52 -42 231 -67 287 -15 32 -37 67 -50 77 -34 26 -29 75 7 75 22 0 26 -6 31
-40 3 -22 21 -83 41 -135 20 -52 43 -129 53 -170 21 -90 38 -113 76 -105 15 3
30 1 34 -4 3 -6 25 -12 48 -13 l42 -1 -38 -4 c-20 -2 -35 -8 -32 -14 6 -8 273
-3 320 6 11 3 31 20 43 39 29 42 59 53 170 59 70 4 89 10 131 36 26 17 55 39
64 49 14 16 13 19 -9 45 l-24 28 -25 -28 c-13 -15 -25 -31 -25 -34 0 -4 -19
-19 -42 -35 -37 -23 -56 -28 -128 -32 -81 -5 -87 -6 -132 -44 -43 -37 -95 -58
-143 -57 -14 0 -10 4 13 14 42 18 99 65 122 101 14 20 16 33 9 52 -5 14 -7 27
-5 30 3 3 9 -3 12 -12 5 -13 9 -14 14 -6 6 9 13 8 31 -3 55 -36 165 -30 214
11 37 31 93 107 98 132 l4 25 2 -25 c3 -51 60 -89 135 -91 17 0 25 -3 19 -6
-30 -11 -9 -23 40 -23 30 0 76 -7 103 -15 48 -14 49 -14 70 10 12 14 29 25 37
25 9 0 38 28 64 62 67 87 145 165 150 151 2 -6 -10 -27 -28 -45 -65 -68 -118
-135 -128 -162 -6 -15 -7 -25 -2 -22 5 3 16 -13 25 -35 15 -36 15 -44 2 -69
-13 -26 -12 -29 7 -34 12 -3 27 0 34 6 27 22 23 -1 -4 -26 -35 -33 -72 -33
-139 -2 -55 25 -71 41 -54 51 41 25 -36 71 -101 60 -22 -4 -39 -10 -39 -15 0
-4 10 -6 23 -4 12 2 5 -2 -15 -9 -32 -10 -83 -57 -62 -57 3 0 1 -6 -5 -13 -6
-8 -8 -17 -4 -20 3 -4 2 -7 -4 -7 -6 0 -25 -28 -42 -62 l-30 -62 30 -15 30
-14 75 79 76 79 -49 -63 c-26 -34 -56 -72 -65 -85 -17 -21 -17 -24 -1 -59 l16
-36 76 -5 c42 -2 118 -10 169 -17 l93 -13 62 30 c34 17 91 45 127 62 74 35
142 90 123 98 -7 2 -13 9 -13 14 0 5 6 9 13 9 6 0 41 26 76 57 53 47 72 74
113 157 37 75 48 110 46 135 -4 30 -3 31 10 15 20 -28 10 -66 -51 -208 -68
-156 -91 -187 -163 -220 -74 -34 -176 -107 -193 -138 -26 -50 -12 -79 57 -119
87 -51 87 -54 2 -19 -66 27 -75 29 -90 15 -37 -34 -100 -4 -100 47 0 23 -32
36 -130 53 -111 20 -223 22 -229 4 -2 -8 -15 -31 -28 -52 -23 -36 -23 -38 -6
-65 50 -79 72 -100 118 -106 24 -4 47 -12 51 -17 3 -5 23 -21 45 -34 37 -24
46 -25 193 -25 146 0 159 -2 245 -31 90 -30 145 -32 122 -5 -13 16 54 12 85
-5 18 -9 38 -4 118 30 136 58 141 50 8 -15 -62 -31 -111 -61 -109 -68 1 -6 32
-30 68 -54 35 -24 80 -56 99 -71 48 -38 114 -71 142 -71 37 0 121 44 149 79
18 21 25 39 21 56 -6 34 -18 39 -44 21 -12 -9 -38 -16 -58 -15 -19 0 -29 3
-22 6 20 8 42 59 42 97 0 25 7 40 26 55 38 30 48 80 29 147 -17 58 -56 94
-102 94 -20 0 -23 -5 -24 -37 0 -21 -6 -74 -13 -118 l-12 -80 -5 115 c-4 108
-6 120 -39 183 -30 59 -38 68 -60 65 -18 -2 -34 -17 -55 -51 -16 -27 -49 -75
-72 -108 -24 -32 -43 -65 -43 -73 0 -8 -8 -24 -19 -37 -16 -20 -22 -21 -52
-13 -35 10 -45 29 -35 69 8 29 30 38 62 23 25 -12 29 -9 69 34 57 63 117 178
104 200 -13 24 -1 66 23 79 11 6 33 8 48 5 36 -7 48 8 56 66 5 33 1 64 -14
109 -12 35 -26 87 -32 114 -15 72 -18 79 -33 68 -6 -5 -18 -8 -24 -7 -7 1 -17
2 -22 3 -5 0 -20 22 -33 49 -13 26 -27 50 -33 54 -7 5 -7 8 0 8 6 0 4 4 -4 9
-9 6 -11 15 -6 27 4 11 7 30 6 43 -2 14 1 21 8 17 6 -4 11 -3 11 2 0 15 -54
59 -105 85 -27 14 -59 32 -70 41 -20 15 -20 15 5 16 65 0 158 -37 224 -89 25
-20 46 -29 55 -25 9 3 21 7 28 7 9 0 8 7 -2 26 -21 41 -56 68 -104 81 -31 8
-65 30 -110 71 -36 33 -66 66 -67 73 -3 22 -47 62 -52 47 -3 -9 -7 -9 -20 1
-12 10 -16 10 -19 1 -7 -19 -20 -16 -26 7 -5 18 -46 42 -124 70 -18 7 -33 17
-33 22 0 5 6 6 13 2 8 -5 9 -4 2 3 -5 5 -32 18 -60 28 -53 19 -147 59 -179 76
-13 8 -16 7 -11 -1 4 -7 -1 -9 -18 -4 -14 3 -34 1 -44 -5 -17 -10 -17 -11 5
-17 24 -7 29 -20 10 -27 -7 -3 2 -6 19 -6 18 -1 52 -5 75 -11 24 -5 56 -12 71
-15 15 -3 25 -9 23 -14 -10 -16 167 -175 229 -206 90 -45 110 -101 47 -130
-12 -5 -23 -19 -23 -30 -1 -19 -2 -19 -6 -1 -3 10 -15 28 -27 40 -30 28 -51
66 -36 66 6 0 9 4 6 9 -4 5 0 12 6 14 10 4 10 6 0 6 -7 1 -10 6 -6 13 5 8 2 9
-10 5 -10 -4 -15 -3 -11 3 4 6 -10 17 -30 25 -19 9 -43 22 -53 31 -9 8 -34 28
-56 45 -42 31 -42 35 0 18 l28 -10 -19 22 c-25 27 -75 49 -115 49 -19 0 -29 5
-28 13 2 6 -4 12 -12 12 -8 0 -14 -7 -12 -15 2 -10 -5 -7 -22 9 -23 22 -26 22
-41 7 -15 -15 -14 -16 14 -16 17 0 31 -4 31 -10 0 -5 -9 -10 -20 -10 -11 0
-20 -5 -20 -10 0 -6 -8 -5 -19 2 -11 7 -17 16 -15 20 3 4 0 8 -6 8 -6 0 -13
-7 -16 -15 -4 -8 -12 -15 -20 -15 -13 0 -19 -18 -15 -47 1 -7 -3 -13 -9 -13
-5 0 -10 5 -10 10 0 27 -23 3 -60 -61 -23 -39 -44 -69 -46 -66 -6 6 58 121 75
134 9 6 14 14 11 16 -20 20 -116 -144 -112 -190 1 -15 -6 -33 -18 -43 -11 -10
-20 -25 -20 -34 0 -9 -4 -16 -9 -16 -5 0 -14 -12 -19 -27 l-10 -28 -1 33 c-1
17 -5 32 -10 32 -20 0 -44 -128 -31 -164 10 -29 -17 -58 -41 -43 -20 13 -25
37 -10 53 14 14 26 194 13 194 -21 0 -32 36 -21 67 7 22 24 36 62 54 52 24
106 85 107 121 0 9 13 29 29 45 15 16 36 43 45 61 9 18 44 54 76 79 33 25 60
50 60 55 0 23 -106 0 -149 -33 -13 -11 -27 -16 -32 -13 -5 3 -9 2 -9 -3 0 -4
-22 -32 -49 -61 -34 -35 -54 -50 -65 -46 -10 4 -16 1 -17 -7 0 -8 -4 -5 -9 6
-8 18 -9 17 -9 -7 -1 -15 -5 -30 -11 -33 -5 -3 -10 -13 -10 -22 0 -18 -33 -49
-100 -96 -54 -37 -70 -57 -92 -116 -19 -51 -23 -91 -9 -91 5 0 11 -9 14 -20 3
-13 1 -18 -6 -13 -7 4 -8 -2 -3 -18 5 -13 10 -66 13 -116 5 -88 4 -94 -18
-112 -13 -10 -30 -16 -38 -13 -8 3 -12 1 -8 -5 8 -12 -74 -26 -100 -16 -12 5
-15 2 -10 -10 10 -25 -11 -21 -52 12 -20 15 -42 26 -49 24 -7 -3 -17 8 -23 26
-6 17 -15 31 -20 31 -5 0 -9 4 -9 10 0 5 7 7 15 4 18 -7 20 7 3 24 -9 9 -7 16
10 32 24 23 38 25 45 8 3 -8 6 -6 6 5 1 9 6 16 13 15 6 -2 17 8 24 21 11 21
13 21 22 6 5 -10 14 -15 21 -11 18 11 13 48 -14 98 -27 51 -33 74 -11 46 12
-16 14 -13 25 24 19 61 34 82 148 199 l103 106 -3 62 c-2 63 -2 64 40 101 24
21 63 43 89 50 50 14 45 23 -18 33 -29 4 -38 2 -38 -9 0 -8 -5 -14 -12 -14 -6
0 -20 -8 -30 -17 -12 -11 -22 -13 -26 -7 -24 35 -129 59 -193 44z m251 -34 c0
-3 -4 -8 -10 -11 -5 -3 -10 -1 -10 4 0 6 5 11 10 11 6 0 10 -2 10 -4z m-40
-38 c0 -13 -25 -14 -38 -1 -20 19 -5 35 18 20 11 -6 20 -15 20 -19z m280 -137
c0 -5 -10 -7 -22 -4 -19 4 -20 3 -8 -6 13 -9 13 -11 -2 -11 -19 0 -31 14 -21
24 10 9 53 7 53 -3z m-343 -33 c-3 -8 -6 -5 -6 6 -1 11 2 17 5 13 3 -3 4 -12
1 -19z m893 -84 c0 -2 -9 0 -20 6 -11 6 -20 13 -20 16 0 2 9 0 20 -6 11 -6 20
-13 20 -16z m-320 -50 c0 -19 5 -34 11 -34 5 0 7 -4 4 -10 -3 -5 -2 -10 4 -10
5 0 12 4 16 10 10 17 35 -1 31 -23 -2 -15 -11 -23 -30 -25 -21 -3 -26 -7 -21
-23 7 -21 -7 -26 -22 -6 -12 14 -26 151 -17 160 13 13 24 -5 24 -39z m26 -11
c-10 -10 -19 5 -10 18 6 11 8 11 12 0 2 -7 1 -15 -2 -18z m184 -8 c0 -2 -7 -5
-15 -9 -9 -3 -15 0 -15 9 0 9 6 12 15 9 8 -4 15 -7 15 -9z m-260 1 c0 -2 -6
-21 -14 -42 -7 -22 -17 -64 -21 -94 -9 -75 -24 -129 -42 -157 -24 -36 -26 -21
-5 28 11 24 22 73 26 109 8 74 33 160 47 160 5 0 9 -2 9 -4z m142 -8 c-9 -9
-15 -9 -24 0 -9 9 -7 12 12 12 19 0 21 -3 12 -12z m-575 -145 c-2 -21 -4 -6
-4 32 0 39 2 55 4 38 2 -18 2 -50 0 -70z m-827 77 c0 -5 -4 -10 -10 -10 -5 0
-10 5 -10 10 0 6 5 10 10 10 6 0 10 -4 10 -10z m1088 -51 c-6 -16 -13 -28 -15
-25 -8 8 6 56 17 56 5 0 5 -13 -2 -31z m542 -9 c0 -5 -4 -10 -10 -10 -5 0 -10
5 -10 10 0 6 5 10 10 10 6 0 10 -4 10 -10z m-885 -30 c3 -5 1 -10 -4 -10 -6 0
-11 5 -11 10 0 6 2 10 4 10 3 0 8 -4 11 -10z m806 -40 c75 -39 104 -89 130
-223 9 -48 15 -60 39 -72 26 -13 30 -13 45 1 24 24 28 11 5 -16 -11 -13 -20
-26 -20 -30 0 -15 -50 -20 -70 -8 -17 11 -20 24 -20 75 0 70 -29 160 -60 188
-11 10 -20 13 -20 7 0 -6 5 -14 11 -18 8 -4 7 -9 -2 -15 -8 -5 -22 2 -39 18
-29 30 -79 53 -115 53 -14 0 -45 -10 -68 -21 -32 -17 -39 -18 -28 -5 22 26 -5
20 -58 -13 -53 -32 -91 -46 -91 -34 0 4 12 14 28 20 15 7 52 32 82 55 30 23
71 48 90 55 42 16 110 8 161 -17z m-810 -93 c-6 -6 -11 -7 -12 -1 0 5 -3 20
-5 34 l-5 25 17 -23 c12 -18 13 -27 5 -35z m427 -70 c2 -18 -2 -29 -14 -34
-23 -9 -50 11 -46 33 8 42 55 43 60 1z m-384 -83 c3 -8 2 -12 -4 -9 -6 3 -10
10 -10 16 0 14 7 11 14 -7z m1001 -4 c-3 -5 -10 -10 -16 -10 -5 0 -9 5 -9 10
0 6 7 10 16 10 8 0 12 -4 9 -10z m-2063 -82 c-9 -9 -15 -9 -24 0 -9 9 -7 12
12 12 19 0 21 -3 12 -12z m768 -63 c-1 -11 -27 20 -41 50 -6 11 1 7 15 -10 14
-16 26 -34 26 -40z m914 -10 c-4 -8 -8 -15 -10 -15 -2 0 -4 7 -4 15 0 8 4 15
10 15 5 0 7 -7 4 -15z m606 -75 c9 -16 8 -22 -5 -26 -21 -8 -39 10 -32 30 9
22 24 20 37 -4z m-840 -20 c18 -12 2 -12 -25 0 -13 6 -15 9 -5 9 8 0 22 -4 30
-9z m-70 -10 c0 -5 -4 -10 -9 -10 -6 0 -13 5 -16 10 -3 6 1 10 9 10 9 0 16 -4
16 -10z m-1780 -25 c0 -8 -2 -15 -4 -15 -2 0 -6 7 -10 15 -3 8 -1 15 4 15 6 0
10 -7 10 -15z m1120 12 c0 -2 -10 -12 -22 -23 l-23 -19 19 23 c18 21 26 27 26
19z m1283 -72 c-22 -30 -43 -39 -57 -24 -8 8 -7 10 4 7 8 -1 25 7 38 20 29 29
37 28 15 -3z m-2473 -365 c0 -5 -2 -10 -4 -10 -3 0 -8 5 -11 10 -3 6 -1 10 4
10 6 0 11 -4 11 -10z m124 -25 c-4 -8 -11 -12 -16 -9 -6 4 -5 10 3 15 19 12
19 11 13 -6z m261 -105 c3 -5 2 -10 -4 -10 -5 0 -13 5 -16 10 -3 6 -2 10 4 10
5 0 13 -4 16 -10z m2532 -82 c-3 -8 -6 -5 -6 6 -1 11 2 17 5 13 3 -3 4 -12 1
-19z"/>
<path d="M4771 5819 c-14 -5 -45 -7 -70 -3 l-45 7 39 -42 39 -41 38 37 c51 51
50 63 -1 42z"/>
<path d="M5628 5804 c-3 -3 -4 -14 -1 -25 11 -41 134 -79 273 -83 19 -1 37 -4
40 -8 9 -12 60 -21 60 -10 0 10 -37 27 -84 38 -21 5 -27 4 -22 -5 4 -6 2 -11
-3 -11 -6 0 -11 7 -11 15 0 8 -5 15 -11 15 -7 0 -57 18 -111 40 -100 40 -120
45 -130 34z m123 -74 c21 -17 21 -19 4 -13 -11 3 -29 12 -40 20 -16 10 -16 13
-3 13 9 0 26 -9 39 -20z"/>
<path d="M4625 5780 c17 -7 15 -9 -12 -9 -23 -1 -31 -5 -27 -14 4 -10 -3 -12
-28 -9 -18 2 -30 1 -26 -3 10 -10 -91 -45 -108 -38 -18 7 -159 -34 -219 -63
-27 -14 -77 -46 -111 -73 -50 -39 -71 -49 -114 -54 -30 -4 -58 -11 -64 -17 -8
-8 -6 -9 7 -4 9 3 23 2 30 -4 22 -17 78 -12 112 11 108 73 151 100 174 109 36
14 119 26 308 46 l161 17 -16 37 c-22 47 -51 78 -71 77 -12 0 -11 -3 4 -9z"/>
<path d="M4868 5783 c7 -3 16 -2 19 1 4 3 -2 6 -13 5 -11 0 -14 -3 -6 -6z"/>
<path d="M5285 5760 c-3 -5 -1 -10 4 -10 6 0 11 5 11 10 0 6 -2 10 -4 10 -3 0
-8 -4 -11 -10z"/>
<path d="M4790 5725 c-11 -13 -10 -14 4 -9 9 3 16 10 16 15 0 13 -6 11 -20 -6z"/>
<path d="M5240 5730 c0 -5 -6 -10 -13 -10 -7 0 -18 -9 -25 -20 -12 -19 -10
-19 23 2 34 23 45 38 25 38 -5 0 -10 -4 -10 -10z"/>
<path d="M4880 5705 c0 -8 2 -15 4 -15 2 0 6 7 10 15 3 8 1 15 -4 15 -6 0 -10
-7 -10 -15z"/>
<path d="M4163 5685 c-18 -8 -33 -18 -33 -22 0 -4 -12 -14 -28 -20 -33 -15
-105 -77 -79 -69 10 3 27 6 38 6 13 0 19 7 19 21 0 14 5 19 18 17 9 -2 26 4
37 14 11 9 31 25 45 36 32 26 24 34 -17 17z"/>
<path d="M5303 5683 c-13 -2 -23 -8 -23 -12 0 -5 11 -6 25 -3 14 2 25 8 25 13
0 5 -1 8 -2 8 -2 -1 -13 -4 -25 -6z"/>
<path d="M5880 5650 c90 -31 125 -36 135 -20 7 12 -83 37 -160 44 l-60 6 85
-30z"/>
<path d="M4610 5633 c-64 -10 -170 -36 -170 -40 0 -3 14 -3 32 1 48 9 22 -7
-44 -29 -32 -10 -58 -21 -58 -25 0 -4 22 -16 48 -27 27 -11 65 -35 85 -53 35
-30 50 -33 53 -9 1 5 2 13 3 18 0 5 14 11 30 14 32 7 146 131 136 148 -6 9
-66 10 -115 2z"/>
<path d="M4390 5580 c0 -5 7 -7 15 -4 8 4 15 8 15 10 0 2 -7 4 -15 4 -8 0 -15
-4 -15 -10z"/>
<path d="M4357 5569 c7 -7 15 -10 18 -7 3 3 -2 9 -12 12 -14 6 -15 5 -6 -5z"/>
<path d="M4113 5497 c-40 -32 -50 -44 -41 -54 8 -10 6 -19 -10 -36 -19 -21
-36 -117 -20 -117 3 0 5 -12 3 -27 -3 -28 27 -73 49 -73 20 1 93 75 88 89 -3
10 0 12 11 8 11 -4 20 5 31 34 18 45 22 129 5 129 -6 0 -9 7 -5 15 6 15 -5 20
-18 8 -3 -4 -12 -8 -19 -9 -7 -2 -23 -6 -37 -9 -24 -6 -24 -6 -6 9 11 9 23 16
28 16 4 0 14 14 23 30 15 29 15 30 -7 30 -13 -1 -46 -20 -75 -43z m77 -187 c0
-5 -4 -10 -10 -10 -5 0 -10 5 -10 10 0 6 5 10 10 10 6 0 10 -4 10 -10z"/>
<path d="M6206 5512 c-6 -9 16 -34 25 -29 2 1 -1 -3 -8 -9 -9 -8 0 -23 39 -62
46 -47 68 -62 68 -46 0 6 -35 58 -58 84 -7 8 -23 28 -36 43 -13 15 -27 24 -30
19z"/>
<path d="M5043 5485 c-11 -8 -31 -32 -43 -52 l-21 -38 47 47 c48 47 57 71 17
43z"/>
<path d="M6195 5440 c3 -5 11 -10 16 -10 6 0 7 5 4 10 -3 6 -11 10 -16 10 -6
0 -7 -4 -4 -10z"/>
<path d="M3700 5370 c-12 -16 -19 -30 -16 -30 8 0 56 46 56 54 0 15 -21 3 -40
-24z"/>
<path d="M3810 5391 c0 -7 -6 -11 -14 -8 -29 11 -91 -91 -81 -131 4 -15 10
-21 12 -14 3 6 9 10 13 7 11 -7 86 143 77 152 -4 3 -7 1 -7 -6z"/>
<path d="M6375 5328 c-18 -8 -18 -8 3 -4 12 2 22 1 22 -3 0 -11 80 -74 86 -68
9 9 -16 48 -29 46 -18 -3 -48 12 -42 21 8 13 -18 18 -40 8z"/>
<path d="M6300 5236 c0 -2 8 -10 18 -17 15 -13 16 -12 3 4 -13 16 -21 21 -21
13z"/>
<path d="M4577 5149 c3 -35 10 -71 15 -79 6 -9 7 11 3 55 -4 39 -10 74 -15 79
-5 4 -6 -20 -3 -55z"/>
<path d="M3552 5149 c-24 -17 -41 -33 -38 -36 3 -3 12 0 21 7 9 7 18 10 22 7
9 -9 44 13 38 23 -3 6 0 7 8 4 8 -3 14 2 14 11 0 22 -16 18 -65 -16z"/>
<path d="M4610 5089 c0 -11 4 -18 10 -14 5 3 7 12 3 20 -7 21 -13 19 -13 -6z"/>
<path d="M6523 5017 c-32 -50 -32 -55 -2 -93 16 -21 39 -53 51 -73 12 -20 33
-49 48 -66 15 -16 30 -43 34 -60 l6 -30 -36 40 c-19 22 -43 58 -53 80 -20 44
-67 105 -82 105 -11 0 -3 -44 22 -132 25 -88 24 -144 -3 -188 -39 -63 -40
-131 -5 -187 25 -39 31 -43 68 -43 89 0 129 -53 138 -182 4 -42 9 -79 12 -83
7 -6 27 17 88 100 21 28 31 49 24 53 -15 11 -12 41 4 35 9 -4 6 13 -12 52 -14
32 -25 59 -25 62 0 2 -4 1 -10 -2 -5 -3 -10 1 -10 9 0 8 -5 18 -12 22 -7 5 -8
3 -3 -7 8 -12 6 -12 -8 0 -15 12 -17 11 -17 -3 0 -15 -3 -15 -29 3 -16 12 -34
21 -40 21 -6 0 -11 7 -11 15 0 8 -4 15 -9 15 -5 0 -11 10 -13 23 -2 12 -9 21
-16 19 -21 -4 3 72 46 143 10 17 19 41 20 55 2 33 -27 120 -40 120 -10 0 -6
27 9 67 7 17 6 17 -11 1 -9 -10 -14 -22 -11 -28 3 -5 1 -10 -5 -10 -8 0 -10 9
-6 24 4 15 -1 31 -14 46 -13 15 -17 26 -10 30 6 4 -6 18 -29 33 -30 20 -42 23
-48 14z m77 -621 c0 -8 -10 -13 -25 -13 -26 0 -34 12 -12 20 23 10 37 7 37 -7z"/>
<path d="M3580 5004 c0 -8 -4 -12 -10 -9 -9 6 -15 -8 -11 -29 1 -5 -5 -6 -14
-3 -10 5 -15 0 -15 -14 0 -15 -4 -19 -16 -15 -12 5 -15 2 -10 -9 4 -12 0 -15
-21 -13 -15 2 -28 -3 -31 -11 -3 -9 0 -11 8 -6 9 5 10 2 5 -14 -8 -27 14 -59
26 -39 6 9 9 4 9 -14 0 -17 8 -31 20 -38 22 -12 29 -3 27 32 -1 29 25 98 37
98 7 0 19 9 29 20 9 11 24 20 32 20 18 0 19 14 5 41 -13 24 -70 27 -70 3z"/>
<path d="M3400 4910 c-11 -40 -4 -94 10 -85 8 5 12 125 4 125 -2 0 -8 -18 -14
-40z"/>
<path d="M3650 4940 c0 -5 5 -10 10 -10 6 0 10 5 10 10 0 6 -4 10 -10 10 -5 0
-10 -4 -10 -10z"/>
<path d="M5240 4704 c-242 -44 -241 -43 -292 -98 -26 -28 -53 -63 -59 -78 -11
-28 -29 -38 -29 -17 0 5 -8 9 -17 8 -26 -4 -94 11 -89 19 2 4 -14 6 -37 5 -41
-2 -42 -2 -7 5 l35 8 -40 7 c-57 10 -135 9 -135 -2 0 -5 6 -11 13 -14 6 -2 -2
-4 -19 -5 -51 -1 -134 -49 -201 -115 -35 -34 -63 -56 -63 -49 0 6 9 17 20 24
11 7 20 16 20 21 0 4 -15 -3 -33 -17 -19 -14 -37 -23 -40 -19 -4 4 -14 -2 -22
-13 -13 -17 -16 -17 -26 -4 -8 12 -10 8 -6 -18 2 -18 0 -35 -5 -38 -4 -3 -8 0
-8 6 0 6 -13 2 -29 -9 -15 -11 -32 -17 -36 -13 -5 4 -6 0 -2 -9 3 -9 0 -22 -6
-28 -6 -6 -11 -34 -13 -63 -1 -29 1 -47 3 -40 3 6 10 9 16 5 6 -4 8 0 4 11 -7
17 39 133 48 124 3 -3 -3 -25 -14 -50 -12 -29 -18 -62 -16 -98 2 -44 0 -51 -8
-32 -11 24 -22 28 -32 12 -9 -14 4 -52 16 -45 5 3 6 -1 3 -9 -3 -8 1 -25 10
-38 9 -13 21 -41 28 -63 6 -22 13 -34 15 -27 7 18 25 14 22 -5 -3 -35 1 -45
17 -39 8 3 12 2 9 -4 -3 -5 16 -19 42 -31 26 -12 56 -26 65 -30 10 -5 27 -9
38 -9 11 0 20 -4 20 -10 0 -5 9 -10 20 -10 11 0 20 5 20 11 0 6 9 8 20 4 12
-4 20 -2 20 5 0 7 6 10 14 7 17 -7 28 16 20 41 -5 13 -4 14 4 3 7 -10 14 -10
29 -3 11 6 24 7 29 3 5 -5 18 -11 28 -13 11 -1 19 -7 19 -13 0 -5 20 -22 46
-38 33 -20 54 -26 76 -22 22 4 26 2 15 -5 -12 -8 -9 -10 13 -10 16 0 26 4 22
9 -3 5 0 13 7 17 7 4 10 4 6 -1 -12 -12 12 -35 36 -35 17 0 18 2 6 10 -11 7
-7 8 15 4 32 -6 77 5 225 53 79 25 97 27 256 28 148 0 175 2 191 17 15 14 31
16 90 11 80 -6 118 1 93 18 -11 8 -8 9 13 5 15 -4 27 -2 27 4 0 5 6 10 14 10
8 0 16 4 18 9 6 16 67 -1 93 -25 14 -13 31 -24 36 -24 6 0 7 -4 4 -10 -4 -6
26 -10 82 -10 87 0 173 -14 309 -51 64 -18 104 -18 104 0 0 12 -73 76 -141
124 -46 32 -70 43 -80 36 -26 -16 -70 -11 -76 10 -5 20 -65 46 -183 78 -50 14
-102 18 -222 18 l-156 0 -22 -27 c-12 -16 -26 -28 -32 -28 -5 0 -22 -9 -37
-19 -30 -22 -68 -19 -88 7 -11 13 -21 12 -90 -11 -106 -35 -167 -42 -252 -27
l-72 12 -57 -37 c-67 -42 -161 -89 -168 -82 -2 2 20 19 50 37 30 19 54 37 53
41 -1 4 1 6 5 6 4 -1 22 13 40 30 l33 33 103 -17 c71 -12 106 -14 110 -6 4 5
35 15 69 21 84 15 105 28 148 92 36 54 37 55 21 85 -9 17 -32 47 -51 68 -31
34 -39 37 -86 37 -43 0 -61 -6 -104 -35 -56 -37 -46 -35 -264 -34 -24 0 -47
-4 -50 -8 -10 -15 -60 -43 -74 -43 -8 0 -19 -6 -25 -13 -15 -18 7 -49 61 -88
22 -16 36 -29 31 -29 -11 0 -127 71 -135 83 -4 6 -8 6 -10 0 -6 -14 -120 -89
-145 -95 -18 -5 -21 -2 -16 16 3 11 11 25 19 29 7 4 13 13 13 19 0 7 -5 7 -14
-1 -17 -15 -29 0 -20 26 3 10 -40 -30 -96 -89 -56 -60 -107 -108 -113 -108 -5
0 11 21 37 47 26 25 68 75 93 110 l46 64 -19 34 c-22 41 -50 55 -112 56 -82 2
-106 17 -29 18 67 1 83 11 56 38 -6 6 -9 17 -7 24 3 8 12 0 23 -19 27 -45 41
-46 79 -8 44 43 146 65 146 31 0 -8 5 -15 10 -15 6 0 23 -9 38 -20 l27 -20
130 35 c72 19 137 38 145 41 10 3 11 2 5 -4 -5 -5 -66 -31 -135 -57 -69 -26
-129 -51 -134 -56 -20 -19 3 -18 80 1 43 11 126 31 184 44 58 13 122 34 142
46 34 19 36 24 26 45 -10 22 -16 24 -57 20 -40 -4 -41 -3 -14 4 36 9 65 29 59
40 -7 10 28 84 47 99 9 7 28 17 44 21 16 4 38 22 50 42 13 19 30 43 38 54 18
23 19 45 3 46 -7 0 -4 4 6 8 37 14 1 17 -64 5z m-15 -24 c3 -5 1 -10 -4 -10
-6 0 -11 5 -11 10 0 6 2 10 4 10 3 0 8 -4 11 -10z m-95 -134 c0 -6 -7 -2 -15
8 -8 11 -15 25 -15 30 0 6 7 2 15 -8 8 -11 15 -25 15 -30z m-265 -76 c-3 -5
-13 -10 -21 -10 -8 0 -12 5 -9 10 3 6 13 10 21 10 8 0 12 -4 9 -10z m-153
-122 c-7 -7 -12 -8 -12 -2 0 6 3 14 7 17 3 4 9 5 12 2 2 -3 -1 -11 -7 -17z
m-422 8 c0 -3 -4 -8 -10 -11 -5 -3 -10 -1 -10 4 0 6 5 11 10 11 6 0 10 -2 10
-4z m590 -140 c0 -4 -59 -36 -67 -36 -1 0 -3 4 -3 9 0 4 15 13 33 19 17 5 33
10 35 11 1 1 2 -1 2 -3z m43 -3 c-7 -2 -19 -2 -25 0 -7 3 -2 5 12 5 14 0 19
-2 13 -5z m360 -150 c-7 -2 -19 -2 -25 0 -7 3 -2 5 12 5 14 0 19 -2 13 -5z
m-1063 -33 c0 -5 -4 -10 -10 -10 -5 0 -10 5 -10 10 0 6 5 10 10 10 6 0 10 -4
10 -10z m1130 -80 c0 -5 -4 -10 -9 -10 -6 0 -13 5 -16 10 -3 6 1 10 9 10 9 0
16 -4 16 -10z m280 -4 c0 -2 -7 -6 -15 -10 -8 -3 -15 -1 -15 4 0 6 7 10 15 10
8 0 15 -2 15 -4z m47 -12 c-3 -3 -12 -4 -19 -1 -8 3 -5 6 6 6 11 1 17 -2 13
-5z m-222 -22 c-3 -3 -11 0 -18 7 -9 10 -8 11 6 5 10 -3 15 -9 12 -12z m775
-27 c0 -5 -5 -3 -10 5 -5 8 -10 20 -10 25 0 6 5 3 10 -5 5 -8 10 -19 10 -25z
m-50 15 c0 -5 -7 -7 -15 -4 -8 4 -15 8 -15 10 0 2 7 4 15 4 8 0 15 -4 15 -10z
m-1085 -25 c-57 -17 -121 -28 -112 -18 9 9 100 30 132 31 11 0 2 -6 -20 -13z
m-650 -15 c-3 -5 -12 -10 -18 -10 -7 0 -6 4 3 10 19 12 23 12 15 0z m520 -20
c-3 -5 -11 -10 -16 -10 -6 0 -7 5 -4 10 3 6 11 10 16 10 6 0 7 -4 4 -10z m-35
-4 c0 -3 -4 -8 -10 -11 -5 -3 -10 -1 -10 4 0 6 5 11 10 11 6 0 10 -2 10 -4z"/>
<path d="M6770 4710 c0 -5 5 -10 11 -10 5 0 7 5 4 10 -3 6 -8 10 -11 10 -2 0
-4 -4 -4 -10z"/>
<path d="M6740 4673 c0 -24 4 -43 9 -43 15 0 18 34 4 60 -12 24 -13 24 -13
-17z"/>
<path d="M6785 4681 c-9 -15 -4 -117 8 -161 9 -34 33 -70 47 -70 4 0 3 21 -2
48 -4 26 -13 76 -18 112 -11 66 -22 90 -35 71z"/>
<path d="M4628 4583 c12 -2 30 -2 40 0 9 3 -1 5 -23 4 -22 0 -30 -2 -17 -4z"/>
<path d="M4159 4333 c-13 -15 -17 -22 -8 -15 9 6 19 10 22 7 4 -3 5 -2 2 2 -3
3 0 12 6 20 21 25 3 13 -22 -14z"/>
<path d="M4918 4243 c7 -3 16 -2 19 1 4 3 -2 6 -13 5 -11 0 -14 -3 -6 -6z"/>
<path d="M6839 4222 c-25 -29 -95 -135 -102 -154 -3 -10 -2 -18 3 -18 6 0 10
-6 10 -12 0 -7 7 -21 15 -31 13 -18 14 -18 32 0 25 25 47 95 38 123 -5 15 -4
20 4 16 6 -4 11 -6 12 -4 4 23 10 98 7 98 -2 0 -11 -8 -19 -18z"/>
<path d="M6875 4178 c-16 -44 -35 -116 -34 -133 1 -29 35 52 44 103 6 39 0 58
-10 30z"/>
<path d="M4608 4120 c-27 -16 -48 -24 -48 -18 0 6 -3 9 -6 5 -3 -3 -3 -10 0
-15 7 -11 66 7 66 20 0 4 6 8 14 8 8 0 16 7 20 15 3 8 4 15 3 14 -1 0 -23 -14
-49 -29z"/>
<path d="M6645 3840 c-16 -11 -51 -25 -77 -32 -60 -15 -61 -26 -3 -26 25 0 43
4 39 9 -3 5 1 9 8 9 16 0 75 46 68 54 -3 3 -19 -3 -35 -14z"/>
<path d="M5520 3840 c-14 -4 -68 -8 -121 -9 l-96 -1 -6 -36 c-7 -39 3 -65 36
-98 11 -12 17 -16 13 -9 -8 14 85 -6 132 -29 18 -9 34 -12 38 -7 7 12 24 12
24 -1 0 -5 -6 -10 -14 -10 -7 0 -16 -11 -18 -25 -3 -14 -2 -25 3 -25 7 0 31
-92 24 -98 -1 -2 -10 5 -20 14 -12 12 -13 19 -5 24 7 4 8 10 3 13 -5 3 -15 2
-22 -2 -11 -7 -11 -13 -1 -32 l13 -24 -23 20 c-22 19 -23 19 -17 1 7 -17 6
-17 -16 -3 -22 14 -23 14 -22 -11 0 -20 18 -41 75 -89 110 -93 206 -133 315
-133 67 0 115 19 55 21 -19 1 -42 3 -50 3 -21 2 -181 78 -176 84 3 2 29 -8 58
-22 55 -27 80 -29 298 -25 l55 1 -30 15 c-29 13 -28 14 30 10 33 -2 80 -1 105
3 36 6 26 8 -54 9 -117 1 -125 9 -13 12 43 1 80 6 83 10 3 5 -7 9 -21 9 -14 0
-24 4 -21 9 7 10 -27 21 -67 21 -25 0 -27 2 -13 15 16 16 31 20 22 6 -6 -10
40 -21 86 -21 16 0 27 -4 23 -9 -8 -14 10 -22 55 -26 45 -4 54 9 13 20 -15 3
-40 17 -56 31 -16 13 -33 24 -39 24 -6 0 -9 3 -6 6 3 3 24 -4 47 -15 44 -23
55 -26 46 -12 -3 5 3 12 12 15 10 3 6 4 -9 2 -15 -2 -33 1 -40 6 -8 6 12 8 57
5 l70 -5 -47 14 c-27 8 -48 16 -48 18 0 1 26 1 58 -1 41 -2 51 0 37 6 -19 9
-19 10 3 10 22 1 22 2 6 34 -9 17 -28 47 -42 66 -14 19 -20 31 -13 27 7 -5 26
-26 42 -48 16 -23 29 -38 29 -33 0 4 6 2 13 -4 8 -6 17 -8 20 -4 4 3 7 -1 7
-10 0 -10 5 -17 10 -17 10 0 14 15 10 35 -1 5 6 15 16 22 10 7 15 20 11 33 -3
11 -1 20 4 20 9 0 13 -18 12 -49 -2 -34 19 11 23 49 4 48 0 53 -80 98 -83 46
-90 50 -116 56 -14 3 -5 -3 19 -14 48 -22 52 -38 5 -19 -59 23 -70 28 -103 38
-44 14 -53 7 -9 -8 18 -7 47 -23 63 -37 l30 -26 -50 25 c-27 13 -68 30 -90 36
-22 7 -47 15 -55 18 -8 3 -28 7 -45 8 -16 2 -22 1 -12 -2 9 -2 17 -9 17 -14 0
-5 7 -9 15 -9 18 0 97 -31 92 -36 -2 -2 -23 3 -47 11 -26 9 -74 15 -124 14
-56 -1 -73 -3 -56 -9 23 -7 22 -8 -10 -10 l-35 -2 35 -13 35 -13 -47 -1 c-50
-1 -78 -8 -78 -21 0 -5 19 -6 43 -3 30 3 38 2 27 -6 -16 -11 -15 -13 20 -28
21 -9 15 -10 -40 -11 -36 -1 -81 2 -100 6 l-35 8 31 7 c17 3 34 14 38 23 6 15
1 16 -36 9 -24 -4 -56 -8 -73 -10 -16 -1 -43 -7 -58 -13 -17 -7 -26 -8 -22 -2
3 6 10 10 15 10 13 0 82 42 77 46 -2 3 -34 -7 -72 -21 -37 -14 -70 -23 -73
-20 -3 3 -1 5 4 5 5 0 35 15 67 34 l59 33 -47 1 c-26 0 -62 -6 -81 -14 -61
-25 -50 -14 20 22 38 20 65 39 60 44 -13 13 -116 20 -144 10z m626 -121 c3 -5
3 -9 1 -9 -7 0 -67 31 -67 35 0 7 60 -17 66 -26z m235 4 c13 -16 12 -17 -3 -4
-10 7 -18 15 -18 17 0 8 8 3 21 -13z m-285 -49 c38 -26 78 -55 89 -66 11 -11
-13 3 -54 32 -41 29 -88 58 -105 66 -17 7 -24 13 -15 14 9 0 48 -21 85 -46z
m307 -74 c7 -28 2 -25 -21 13 -12 17 -30 46 -42 62 -13 18 -6 13 18 -12 22
-24 42 -52 45 -63z m17 75 c14 -19 14 -19 -2 -6 -10 7 -18 18 -18 24 0 6 1 8
3 6 1 -2 9 -13 17 -24z m-800 1 c0 -2 -7 -7 -16 -10 -8 -3 -12 -2 -9 4 6 10
25 14 25 6z m305 -47 c-3 -3 9 -13 26 -21 28 -14 29 -16 10 -21 -12 -3 -31 -4
-44 -2 -92 11 -136 32 -99 47 22 9 112 7 107 -3z m121 -5 c18 -14 18 -14 -6
-3 -31 14 -36 19 -24 19 6 0 19 -7 30 -16z m49 -32 c-3 -3 -11 0 -18 7 -9 10
-8 11 6 5 10 -3 15 -9 12 -12z m-177 -39 c-16 -2 -40 -2 -55 0 -16 2 -3 4 27
4 30 0 43 -2 28 -4z m132 -49 c0 -2 -7 -4 -15 -4 -8 0 -15 4 -15 10 0 5 7 7
15 4 8 -4 15 -8 15 -10z m-605 -24 c3 -5 1 -10 -4 -10 -6 0 -11 5 -11 10 0 6
2 10 4 10 3 0 8 -4 11 -10z m100 -31 c11 -10 29 -25 40 -34 15 -12 11 -12 -13
2 -18 10 -43 29 -55 42 -23 26 -7 19 28 -10z m265 -28 c0 -11 -26 -22 -34 -14
-12 12 -5 23 14 23 11 0 20 -4 20 -9z m168 -58 c-10 -2 -26 -2 -35 0 -10 3 -2
5 17 5 19 0 27 -2 18 -5z m-303 -51 c-3 -3 -11 0 -18 7 -9 10 -8 11 6 5 10 -3
15 -9 12 -12z"/>
<path d="M6095 3825 c35 -16 65 -19 65 -6 0 5 -10 7 -22 3 -11 -3 -19 -1 -16
4 4 5 -8 10 -25 11 l-32 1 30 -13z"/>
<path d="M4500 3799 c-43 -16 -68 -19 -114 -14 -53 6 -58 5 -47 -9 7 -9 28
-18 47 -22 19 -3 51 -15 71 -25 46 -23 77 -25 69 -4 -6 17 6 18 109 16 33 -1
74 3 90 8 25 8 26 9 7 10 -12 1 -41 13 -64 27 -54 35 -101 38 -168 13z"/>
<path d="M4820 3747 c-84 -19 -90 -22 -55 -25 40 -4 155 27 155 40 0 5 -1 8
-2 7 -2 0 -46 -11 -98 -22z"/>
<path d="M6170 3340 c-9 -6 -10 -10 -3 -10 6 0 15 5 18 10 8 12 4 12 -15 0z"/>
<path d="M6073 3333 c9 -2 23 -2 30 0 6 3 -1 5 -18 5 -16 0 -22 -2 -12 -5z"/>
<path d="M5440 3181 c0 -6 4 -13 10 -16 6 -3 7 1 4 9 -7 18 -14 21 -14 7z"/>
<path d="M7915 5817 c-10 -8 -15 -19 -11 -25 4 -7 4 -12 -1 -12 -4 0 -5 -98
-1 -217 4 -121 3 -256 -3 -303 -11 -108 -12 -361 0 -379 7 -12 115 -14 647
-16 352 -1 671 1 709 4 l70 6 0 125 c0 69 -2 186 -5 260 -2 74 0 221 4 327 8
176 8 194 -9 219 l-17 27 -331 -6 c-228 -3 -332 -8 -335 -16 -4 -13 -34 -15
-48 -2 -5 5 -150 11 -321 15 -266 5 -313 4 -313 -8 0 -8 -7 -17 -16 -20 -21
-8 -24 -8 -24 4 0 6 7 10 15 10 8 0 15 5 15 10 0 13 -3 13 -25 -3z m1363 -41
c9 -10 6 -826 -4 -836 -5 -5 -8 148 -6 410 l2 420 -657 -3 -658 -2 -7 -389
c-4 -213 -9 -391 -12 -394 -9 -8 -7 794 2 803 7 8 1331 -1 1340 -9z m-703 -45
c-16 -7 -9 -10 30 -16 27 -4 55 -14 63 -21 9 -9 39 -14 85 -15 40 0 92 -4 117
-8 25 -5 -157 -8 -420 -8 -323 0 -431 2 -353 8 134 10 221 22 288 42 l50 14
-40 5 c-22 3 14 5 80 6 70 0 112 -3 100 -7z m-545 -16 c0 -8 -9 -15 -20 -15
-11 0 -20 7 -20 15 0 8 9 15 20 15 11 0 20 -7 20 -15z m44 0 c4 -10 -1 -15
-14 -15 -11 0 -20 7 -20 15 0 8 6 15 14 15 8 0 16 -7 20 -15z m56 0 c0 -8 -7
-15 -15 -15 -8 0 -15 7 -15 15 0 8 7 15 15 15 8 0 15 -7 15 -15z m960 0 c0 -8
-4 -15 -10 -15 -5 0 -10 7 -10 15 0 8 5 15 10 15 6 0 10 -7 10 -15z m60 0 c0
-8 -9 -15 -20 -15 -11 0 -20 7 -20 15 0 8 9 15 20 15 11 0 20 -7 20 -15z m58
-2 c2 -8 -5 -13 -17 -13 -12 0 -21 6 -21 16 0 18 31 15 38 -3z m-153 -3 c3 -5
1 -10 -4 -10 -6 0 -11 5 -11 10 0 6 2 10 4 10 3 0 8 -4 11 -10z m-565 -131 c0
-32 3 -39 20 -39 17 0 20 7 20 45 0 25 4 45 9 45 6 0 13 -20 17 -45 8 -59 32
-61 36 -2 2 23 8 42 13 42 6 0 11 -19 13 -42 3 -35 7 -43 23 -43 16 0 19 7 19
46 0 54 15 51 24 -6 9 -55 36 -55 36 0 0 66 21 50 32 -25 2 -12 12 -21 27 -23
15 -2 27 -14 34 -32 9 -23 19 -30 49 -35 21 -4 38 -11 38 -16 0 -7 -56 -14
-82 -10 -5 0 -9 -51 -9 -114 -2 -142 -1 -138 -17 -141 -7 -1 -8 0 -2 3 5 2 7
10 3 16 -4 7 -10 75 -13 152 l-5 140 -150 1 -150 0 145 -5 145 -6 0 -37 c-1
-21 -3 -89 -5 -150 -3 -109 -3 -111 -10 -48 -4 36 -8 97 -9 137 0 39 -5 74 -9
77 -13 8 -35 -11 -28 -23 5 -7 1 -8 -10 -4 -10 3 -15 2 -12 -3 4 -5 -5 -10
-18 -10 -13 -1 -21 2 -18 7 7 11 -29 -2 -37 -13 -3 -5 -16 -10 -27 -11 -12 -1
-22 -5 -22 -9 0 -4 -10 -8 -22 -9 l-23 0 23 -9 c12 -5 22 -15 22 -23 0 -8 -10
-13 -22 -13 -17 1 -23 -5 -23 -19 0 -15 6 -19 23 -17 30 3 24 -22 -5 -26 -34
-5 -53 23 -42 60 5 18 9 34 9 35 0 1 -7 0 -16 -4 -13 -5 -15 -22 -12 -99 3
-89 -2 -114 -16 -78 -3 9 -7 55 -7 102 -1 77 -2 82 -10 42 -4 -25 -8 -78 -8
-117 l-1 -73 118 -1 c145 -2 216 -15 97 -19 -44 -1 -84 -2 -89 -1 -5 1 -22 -1
-37 -4 -25 -6 -29 -11 -29 -40 0 -19 -5 -37 -11 -41 -8 -4 -10 7 -8 38 3 34 1
44 -9 41 -19 -8 -62 25 -62 47 0 17 -7 20 -45 20 -25 0 -45 5 -45 10 0 6 16
10 35 10 23 0 38 6 42 15 8 21 -1 28 -38 29 -50 2 -49 26 0 26 30 0 41 4 41
15 0 8 -6 16 -12 16 -7 1 -17 2 -23 4 -5 1 -18 3 -27 3 -36 4 -17 22 22 22 56
0 55 27 0 36 -23 4 -39 11 -37 18 3 10 11 12 60 15 9 1 17 8 17 16 0 11 -11
15 -40 15 -29 0 -40 4 -40 15 0 11 11 15 38 15 32 0 39 5 52 33 9 20 24 33 38
35 15 2 22 10 22 25 0 35 11 67 21 61 5 -3 9 -23 9 -45z m-214 16 c-10 -8 -24
-11 -30 -8 -6 4 -5 -1 3 -10 25 -31 -7 -41 -134 -42 -68 0 -80 3 -83 18 -2 11
5 21 20 26 22 10 22 10 -5 10 -16 1 -26 5 -22 11 4 6 61 10 138 10 117 -1 130
-2 113 -15z m78 3 c-7 -11 -54 -10 -54 1 0 5 13 9 30 9 16 -1 27 -5 24 -10z
m616 -10 c0 -16 -3 -19 -11 -11 -6 6 -8 16 -5 22 11 17 16 13 16 -11z m162
-55 c30 -29 36 -64 14 -82 -11 -10 -16 -8 -21 8 -3 12 -15 26 -26 32 -17 9
-25 6 -49 -19 -33 -34 -40 -32 -40 13 0 31 24 65 37 52 3 -4 15 0 27 8 27 19
25 20 58 -12z m-934 -31 c3 -10 -12 -13 -69 -11 -80 2 -93 5 -83 20 9 15 147
7 152 -9z m62 -90 c0 -4 -17 -6 -37 -4 -59 5 -63 10 -10 11 26 1 47 -3 47 -7z
m640 -22 c0 -4 -18 -10 -40 -12 -31 -3 -40 0 -40 12 0 12 9 15 40 12 22 -2 40
-8 40 -12z m-750 -20 c0 -5 -22 -10 -50 -10 -27 0 -50 5 -50 10 0 6 23 10 50
10 28 0 50 -4 50 -10z m485 -26 c0 -10 -10 -23 -22 -29 -13 -5 -23 -16 -23
-23 0 -7 -4 -10 -10 -7 -11 6 -14 78 -4 87 12 13 59 -9 59 -28z m35 -10 c0
-24 4 -34 13 -31 6 2 12 19 13 38 0 46 18 44 22 -3 2 -28 -1 -39 -17 -47 -34
-19 -51 -4 -51 46 0 27 4 42 10 38 6 -3 10 -22 10 -41z m230 -3 c0 -5 -18 -11
-40 -13 -28 -2 -40 0 -40 9 0 8 14 13 40 13 22 0 40 -4 40 -9z m-15 -61 c15
-1 13 -4 -8 -10 -30 -9 -57 -4 -57 11 0 5 10 7 23 5 12 -3 31 -5 42 -6z m-870
-58 c-8 -53 -15 -52 -15 2 0 30 4 45 10 41 6 -4 9 -22 5 -43z m1093 21 c-21
-2 -55 -2 -75 0 -21 2 -4 4 37 4 41 0 58 -2 38 -4z m-898 -14 c-65 -11 -160
-11 -160 1 0 6 40 10 103 9 84 -1 94 -3 57 -10z m685 -19 c-3 -5 -19 -10 -35
-10 -16 0 -32 5 -35 10 -4 6 10 10 35 10 25 0 39 -4 35 -10z m208 3 c-18 -2
-48 -2 -65 0 -18 2 -4 4 32 4 36 0 50 -2 33 -4z m4 -20 c-20 -2 -52 -2 -70 0
-17 2 0 4 38 4 39 0 53 -2 32 -4z m32 -29 c2 -2 -26 -4 -62 -4 -37 0 -67 4
-67 10 0 9 118 3 129 -6z m-362 -20 c-3 -3 -12 -4 -19 -1 -8 3 -5 6 6 6 11 1
17 -2 13 -5z m311 -1 c-16 -2 -40 -2 -55 0 -16 2 -3 4 27 4 30 0 43 -2 28 -4z
m-1008 -13 c0 -5 -5 -10 -11 -10 -5 0 -7 5 -4 10 3 6 8 10 11 10 2 0 4 -4 4
-10z m107 4 c-3 -3 -12 -4 -19 -1 -8 3 -5 6 6 6 11 1 17 -2 13 -5z m363 -44
c0 -22 -4 -40 -10 -40 -5 0 -10 18 -10 40 0 22 5 40 10 40 6 0 10 -18 10 -40z
m194 -15 c-4 -8 -10 -15 -15 -15 -11 0 -12 53 -2 64 10 10 24 -31 17 -49z
m353 42 c3 -4 -15 -7 -40 -7 -26 0 -47 5 -47 11 0 11 75 8 87 -4z m-477 -27
c0 -18 -5 -30 -13 -30 -8 0 -13 12 -13 30 0 18 5 30 13 30 8 0 13 -12 13 -30z
m60 -5 c0 -19 -4 -35 -10 -35 -5 0 -10 16 -10 35 0 19 5 35 10 35 6 0 10 -16
10 -35z m-430 15 c0 -6 -37 -10 -92 -9 -62 1 -85 4 -68 9 37 12 160 12 160 0z
m-237 -167 c-7 -2 -21 -2 -30 0 -10 3 -4 5 12 5 17 0 24 -2 18 -5z m705 0
c-60 -2 -156 -2 -215 0 -60 1 -11 3 107 3 118 0 167 -2 108 -3z m485 0 c-29
-2 -78 -2 -110 0 -32 2 -8 3 52 3 61 0 87 -1 58 -3z"/>
<path d="M8590 5340 c0 -5 4 -10 9 -10 6 0 13 5 16 10 3 6 -1 10 -9 10 -9 0
-16 -4 -16 -10z"/>
<path d="M7867 4813 c-37 -60 -40 -74 -18 -95 11 -10 22 -18 24 -18 2 0 20 24
39 53 l35 52 144 -5 144 -5 -140 -3 c-163 -3 -213 -22 -59 -22 121 0 109 -16
-14 -19 -111 -2 -137 -21 -28 -21 44 0 75 -4 72 -9 -4 -5 -35 -8 -70 -6 -35 1
-70 -1 -77 -6 -9 -5 19 -9 71 -10 47 0 271 -2 499 -5 228 -2 416 -6 419 -9 3
-3 -225 -5 -506 -5 -499 0 -512 0 -522 -20 -9 -16 -8 -18 5 -14 11 5 15 -1 15
-19 0 -30 21 -50 44 -41 10 4 16 1 16 -9 0 -8 7 -18 16 -21 21 -8 367 -6 479
3 l90 8 -87 1 c-49 1 -88 5 -88 10 0 4 5 24 11 45 l10 37 215 0 214 0 10 -26
c23 -60 19 -64 -82 -65 -91 -2 -92 -2 -33 -9 91 -12 657 -11 675 0 10 6 11 10
3 10 -19 0 -16 18 6 47 11 13 17 31 14 39 -3 8 0 14 5 14 15 0 -4 42 -53 118
l-39 62 -718 0 -718 0 -23 -37z m809 10 c-9 -10 -716 -10 -716 0 0 4 163 7
362 7 199 0 358 -3 354 -7z m134 0 c0 -4 -27 -8 -60 -9 -32 0 -57 2 -55 6 6
10 115 12 115 3z m60 -3 c0 -5 -9 -9 -20 -7 -31 5 -36 17 -7 17 15 0 27 -4 27
-10z m50 0 c0 -5 -2 -10 -4 -10 -3 0 -8 5 -11 10 -3 6 -1 10 4 10 6 0 11 -4
11 -10z m35 0 c3 -5 1 -10 -4 -10 -6 0 -11 5 -11 10 0 6 2 10 4 10 3 0 8 -4
11 -10z m333 -65 l52 -75 -55 0 c-30 0 -55 5 -55 10 0 6 18 10 41 10 24 0 38
4 34 10 -3 6 -42 10 -86 9 -44 -1 -83 2 -86 5 -4 3 29 6 71 6 58 0 77 3 74 13
-3 8 -30 12 -82 14 -102 1 -112 13 -12 13 96 0 94 19 -2 22 l-67 1 65 7 c80 7
61 18 -40 23 l-75 3 85 2 86 2 52 -75z m-962 37 c-5 -8 -76 -4 -76 4 0 2 18 4
41 4 22 0 38 -4 35 -8z m94 4 c0 -9 -50 -12 -62 -5 -8 6 1 9 25 9 20 0 37 -2
37 -4z m56 -5 c-3 -5 -15 -7 -26 -4 -28 7 -25 13 6 13 14 0 23 -4 20 -9z m54
5 c0 -9 -30 -14 -35 -6 -4 6 3 10 14 10 12 0 21 -2 21 -4z m50 0 c0 -11 -19
-15 -25 -6 -3 5 1 10 9 10 9 0 16 -2 16 -4z m45 -6 c-3 -5 -12 -7 -20 -3 -21
7 -19 13 6 13 11 0 18 -4 14 -10z m52 4 c-3 -3 -12 -4 -19 -1 -8 3 -5 6 6 6
11 1 17 -2 13 -5z m86 -1 c-7 -2 -19 -2 -25 0 -7 3 -2 5 12 5 14 0 19 -2 13
-5z m50 0 c-7 -2 -19 -2 -25 0 -7 3 -2 5 12 5 14 0 19 -2 13 -5z m50 0 c-7 -2
-19 -2 -25 0 -7 3 -2 5 12 5 14 0 19 -2 13 -5z m60 0 c-7 -2 -19 -2 -25 0 -7
3 -2 5 12 5 14 0 19 -2 13 -5z m44 1 c-3 -3 -12 -4 -19 -1 -8 3 -5 6 6 6 11 1
17 -2 13 -5z m56 -1 c-7 -2 -19 -2 -25 0 -7 3 -2 5 12 5 14 0 19 -2 13 -5z
m77 -3 c0 -5 -2 -10 -4 -10 -3 0 -8 5 -11 10 -3 6 -1 10 4 10 6 0 11 -4 11
-10z m-905 -30 c-3 -5 -15 -10 -26 -10 -11 0 -17 5 -14 10 3 6 15 10 26 10 11
0 17 -4 14 -10z m57 -2 c-9 -9 -15 -9 -24 0 -9 9 -7 12 12 12 19 0 21 -3 12
-12z m63 2 c-3 -5 -13 -10 -21 -10 -8 0 -12 5 -9 10 3 6 13 10 21 10 8 0 12
-4 9 -10z m52 -1 c-11 -7 -23 -7 -28 -2 -5 5 3 9 19 11 24 1 25 0 9 -9z m63 3
c0 -4 -9 -8 -20 -9 -11 -1 -20 2 -20 8 0 5 9 9 20 9 11 0 20 -4 20 -8z m110 0
c0 -4 -20 -8 -45 -8 -25 0 -45 4 -45 8 0 4 20 8 45 8 25 0 45 -4 45 -8z m68
-2 c-10 -6 -25 -7 -40 -1 -20 9 -18 10 17 10 31 0 36 -2 23 -9z m112 0 c0 -5
-7 -10 -15 -10 -8 0 -15 5 -15 10 0 6 7 10 15 10 8 0 15 -4 15 -10z m50 0 c0
-5 -4 -10 -9 -10 -6 0 -13 5 -16 10 -3 6 1 10 9 10 9 0 16 -4 16 -10z m50 0
c0 -5 -4 -10 -9 -10 -6 0 -13 5 -16 10 -3 6 1 10 9 10 9 0 16 -4 16 -10z m50
6 c0 -11 -19 -15 -25 -6 -3 5 1 10 9 10 9 0 16 -2 16 -4z m70 0 c0 -9 -30 -14
-35 -6 -4 6 3 10 14 10 12 0 21 -2 21 -4z m50 -6 c0 -5 -7 -10 -15 -10 -8 0
-15 5 -15 10 0 6 7 10 15 10 8 0 15 -4 15 -10z m55 0 c-3 -5 -12 -7 -20 -3
-21 7 -19 13 6 13 11 0 18 -4 14 -10z m55 6 c0 -11 -19 -15 -25 -6 -3 5 1 10
9 10 9 0 16 -2 16 -4z m-995 -36 c3 -5 -1 -10 -9 -10 -9 0 -16 5 -16 10 0 6 4
10 9 10 6 0 13 -4 16 -10z m181 -5 c-23 -17 -36 -19 -36 -6 0 5 8 12 18 14 32
9 37 6 18 -8z m64 5 c0 -5 -10 -10 -22 -9 -22 0 -22 1 -3 9 11 5 21 9 23 9 1
1 2 -3 2 -9z m650 -6 c0 -2 -7 -4 -15 -4 -8 0 -15 4 -15 10 0 5 7 7 15 4 8 -4
15 -8 15 -10z m-839 -5 c-16 -6 -28 -6 -35 1 -7 7 1 10 25 9 32 0 33 -1 10
-10z m72 4 c-7 -2 -21 -2 -30 0 -10 3 -4 5 12 5 17 0 24 -2 18 -5z m340 0
c-40 -2 -106 -2 -145 0 -40 1 -8 3 72 3 80 0 112 -2 73 -3z m174 0 c-20 -2
-52 -2 -70 0 -17 2 0 4 38 4 39 0 53 -2 32 -4z m86 0 c-7 -2 -19 -2 -25 0 -7
3 -2 5 12 5 14 0 19 -2 13 -5z m54 1 c-3 -3 -12 -4 -19 -1 -8 3 -5 6 6 6 11 1
17 -2 13 -5z m68 -4 c7 -12 -2 -12 -30 0 -19 8 -19 9 2 9 12 1 25 -3 28 -9z
m108 3 c-7 -2 -19 -2 -25 0 -7 3 -2 5 12 5 14 0 19 -2 13 -5z m54 1 c-3 -3
-12 -4 -19 -1 -8 3 -5 6 6 6 11 1 17 -2 13 -5z m-100 -38 c3 -3 -15 -6 -41 -6
-26 0 -45 4 -42 9 7 10 73 8 83 -3z m122 -2 c2 -2 -20 -4 -50 -4 -38 0 -49 3
-39 10 13 8 79 4 89 -6z m61 8 c0 -4 -9 -8 -20 -8 -11 0 -20 4 -20 8 0 4 9 8
20 8 11 0 20 -4 20 -8z"/>
<path d="M8400 4625 c-6 -15 -10 -28 -10 -31 0 -2 99 -4 219 -4 l219 0 -7 28
-7 27 -202 3 -202 2 -10 -25z"/>
<path d="M7700 4516 c0 -36 21 -37 397 -34 313 3 372 6 395 19 27 15 23 16
-94 22 -67 4 -251 7 -410 7 -238 0 -288 -2 -288 -14z"/>
<path d="M8783 4523 c-45 -4 -55 -15 -25 -29 9 -5 175 -10 367 -11 304 -3 353
-1 373 13 12 8 22 19 22 25 0 9 -641 10 -737 2z"/>
<path d="M860 5215 c0 -27 26 -35 47 -14 17 17 4 39 -23 39 -19 0 -24 -5 -24
-25z"/>
<path d="M1300 5134 c0 -10 7 -14 22 -12 32 5 35 28 4 28 -17 0 -26 -5 -26
-16z"/>
<path d="M1473 4572 c15 -6 7 -12 -38 -26 -95 -30 -153 -95 -176 -199 -7 -32
-16 -53 -19 -46 -10 15 -23 -73 -14 -94 4 -11 17 -17 35 -17 l29 0 0 83 c0 97
19 147 73 194 92 81 216 64 284 -38 25 -38 28 -53 31 -141 l4 -98 34 0 34 0 0
95 c0 103 -11 144 -56 203 -14 18 -32 31 -39 28 -7 -2 -21 2 -32 10 -17 14
-16 14 7 4 23 -10 24 -10 6 4 -10 9 -23 13 -28 10 -11 -7 -50 5 -44 14 2 4 -6
7 -17 8 -12 1 -38 4 -57 8 -21 4 -27 3 -17 -2z"/>
<path d="M1305 4510 c-3 -5 -1 -10 4 -10 6 0 11 5 11 10 0 6 -2 10 -4 10 -3 0
-8 -4 -11 -10z"/>
<path d="M1279 4473 c-13 -16 -12 -17 4 -4 16 13 21 21 13 21 -2 0 -10 -8 -17
-17z"/>
<path d="M1439 4480 c-84 -25 -119 -87 -119 -209 l0 -83 58 7 c72 9 108 9 205
0 l77 -8 0 64 c-1 125 -25 178 -100 217 -46 23 -76 26 -121 12z"/>
<path d="M1232 4345 c0 -16 2 -22 5 -12 2 9 2 23 0 30 -3 6 -5 -1 -5 -18z"/>
<path d="M1641 4148 c-27 -6 -39 -13 -32 -17 17 -11 -116 -21 -267 -21 -105 0
-123 -2 -118 -15 3 -8 -3 -19 -12 -25 -15 -8 -15 -11 -2 -20 13 -8 13 -10 -2
-10 -16 0 -18 -12 -19 -102 -1 -122 -17 -182 -19 -73 l-2 70 -15 -70 c-8 -38
-17 -102 -20 -142 -4 -68 -3 -74 22 -99 25 -25 28 -26 123 -21 53 3 120 9 147
14 32 6 84 4 145 -4 52 -6 123 -12 158 -12 54 -1 66 2 88 24 23 24 25 31 21
93 -2 37 -10 86 -17 109 -14 47 -5 177 11 168 15 -10 10 93 -6 124 -21 42 -84
51 -184 29z m148 -123 c-1 -73 -6 -62 -11 23 -3 34 -1 57 4 50 4 -7 7 -40 7
-73z m-264 11 c57 -24 73 -90 35 -139 -18 -22 -19 -31 -10 -69 5 -24 10 -55
10 -70 l0 -28 -75 0 c-84 0 -81 -4 -64 83 11 51 10 58 -10 83 -36 45 -21 116
29 141 32 16 43 16 85 -1z m262 -268 c-2 -29 -3 -6 -3 52 0 58 1 81 3 53 2
-29 2 -77 0 -105z"/>
<path d="M1440 4000 c-24 -24 -26 -72 -4 -91 13 -10 15 -24 11 -64 -4 -27 -9
-60 -13 -71 -5 -20 -2 -22 48 -26 29 -2 55 -3 57 -2 2 2 -2 33 -9 69 -11 60
-11 68 5 86 59 64 -34 160 -95 99z"/>
<path d="M8207 4232 c-20 -22 -22 -73 -5 -90 17 -17 65 -15 72 4 13 34 6 83
-13 94 -27 14 -35 13 -54 -8z"/>
<path d="M8731 4201 c-19 -12 -10 -75 11 -79 21 -4 39 28 32 56 -7 24 -25 34
-43 23z"/>
<path d="M2294 4086 c-10 -25 0 -61 18 -64 25 -5 46 42 28 63 -16 19 -39 19
-46 1z"/>
<path d="M2577 4043 c-13 -12 -7 -23 12 -23 10 0 21 7 25 15 5 15 -24 22 -37
8z"/>
<path d="M8502 3933 c-14 -25 3 -65 25 -61 25 5 25 71 1 76 -9 2 -21 -5 -26
-15z"/>
<path d="M8264 3889 c-11 -18 13 -34 31 -19 8 7 15 16 15 21 0 13 -38 11 -46
-2z"/>
<path d="M8844 3889 c-11 -18 13 -34 31 -19 8 7 15 16 15 21 0 13 -38 11 -46
-2z"/>
<path d="M9080 3935 c-11 -13 -8 -15 14 -15 16 0 26 5 26 15 0 8 -6 15 -14 15
-7 0 -19 -7 -26 -15z"/>
<path d="M2162 3823 c3 -52 5 -58 23 -55 32 5 56 40 48 71 -7 31 -20 41 -51
41 -22 0 -23 -3 -20 -57z"/>
<path d="M2343 3843 c-22 -8 -14 -23 12 -23 14 0 25 4 25 9 0 11 -21 19 -37
14z"/>
<path d="M2477 3834 c-4 -4 -7 -20 -7 -35 0 -19 6 -30 21 -34 26 -9 40 10 37
45 -3 25 -35 40 -51 24z"/>
<path d="M2684 3814 c-4 -17 -1 -31 10 -42 15 -15 17 -15 32 0 22 22 11 68
-16 68 -13 0 -22 -9 -26 -26z"/>
<path d="M3190 3840 c-19 -12 -7 -22 21 -18 19 2 20 5 8 15 -9 7 -20 9 -29 3z"/>
</g>
</svg>
